<svg width="34" height="34" viewBox="0 0 34 34" fill="none" xmlns="http://www.w3.org/2000/svg">
<path d="M17 10V10.01M17 17V17.01M17 24V24.01M17 11C16.7348 11 16.4804 10.8946 16.2929 10.7071C16.1054 10.5196 16 10.2652 16 10C16 9.73478 16.1054 9.48043 16.2929 9.29289C16.4804 9.10536 16.7348 9 17 9C17.2652 9 17.5196 9.10536 17.7071 9.29289C17.8946 9.48043 18 9.73478 18 10C18 10.2652 17.8946 10.5196 17.7071 10.7071C17.5196 10.8946 17.2652 11 17 11ZM17 18C16.7348 18 16.4804 17.8946 16.2929 17.7071C16.1054 17.5196 16 17.2652 16 17C16 16.7348 16.1054 16.4804 16.2929 16.2929C16.4804 16.1054 16.7348 16 17 16C17.2652 16 17.5196 16.1054 17.7071 16.2929C17.8946 16.4804 18 16.7348 18 17C18 17.2652 17.8946 17.5196 17.7071 17.7071C17.5196 17.8946 17.2652 18 17 18ZM17 25C16.7348 25 16.4804 24.8946 16.2929 24.7071C16.1054 24.5196 16 24.2652 16 24C16 23.7348 16.1054 23.4804 16.2929 23.2929C16.4804 23.1054 16.7348 23 17 23C17.2652 23 17.5196 23.1054 17.7071 23.2929C17.8946 23.4804 18 23.7348 18 24C18 24.2652 17.8946 24.5196 17.7071 24.7071C17.5196 24.8946 17.2652 25 17 25Z" stroke="black" stroke-width="2" stroke-linecap="round" stroke-linejoin="round"/>
</svg>
