<svg width="259" height="185" viewBox="0 0 259 185" fill="none" xmlns="http://www.w3.org/2000/svg">
<circle cx="213" cy="10" r="10" fill="#7AB2B2" fill-opacity="0.32"/>
<circle cx="213" cy="10" r="6" fill="#7AB2B2" fill-opacity="0.32"/>
<circle cx="239" cy="150" r="20" fill="#7AB2B2" fill-opacity="0.32"/>
<circle cx="239" cy="150" r="12" fill="#7AB2B2" fill-opacity="0.32"/>
<circle cx="15" cy="95" r="15" fill="#7AB2B2" fill-opacity="0.32"/>
<circle cx="15" cy="95" r="9" fill="#7AB2B2" fill-opacity="0.32"/>
<circle cx="128" cy="95" r="90" fill="#7AB2B2" fill-opacity="0.32"/>
<circle cx="128" cy="95" r="75" fill="#7AB2B2" fill-opacity="0.32"/>
<path d="M111.196 95L122.399 106.202L144.804 83.7975M104.671 54.0942C108.689 53.7735 112.503 52.1937 115.571 49.5796C119.038 46.6237 123.444 45 128 45C132.556 45 136.962 46.6237 140.429 49.5796C143.497 52.1937 147.311 53.7735 151.329 54.0942C155.87 54.4555 160.134 56.4233 163.355 59.6446C166.577 62.8659 168.545 67.1297 168.906 71.6709C169.226 75.6887 170.806 79.503 173.42 82.5709C176.376 86.0375 178 90.4442 178 95C178 99.5558 176.376 103.962 173.42 107.429C170.806 110.497 169.226 114.311 168.906 118.329C168.545 122.87 166.577 127.134 163.355 130.355C160.134 133.577 155.87 135.545 151.329 135.906C147.311 136.226 143.497 137.806 140.429 140.42C136.962 143.376 132.556 145 128 145C123.444 145 119.038 143.376 115.571 140.42C112.503 137.806 108.689 136.226 104.671 135.906C100.13 135.545 95.8659 133.577 92.6446 130.355C89.4233 127.134 87.4555 122.87 87.0942 118.329C86.7735 114.311 85.1937 110.497 82.5796 107.429C79.6237 103.962 78 99.5558 78 95C78 90.4442 79.6237 86.0375 82.5796 82.5709C85.1937 79.503 86.7735 75.6887 87.0942 71.6709C87.4555 67.1297 89.4233 62.8659 92.6446 59.6446C95.8659 56.4233 100.13 54.4555 104.671 54.0942Z" stroke="#369393" stroke-width="4" stroke-linecap="round" stroke-linejoin="round"/>
</svg>
