<svg width="21" height="26" viewBox="0 0 21 26" fill="none" xmlns="http://www.w3.org/2000/svg">
<path d="M9.83747 4.57728C10.9081 4.57728 11.776 3.70937 11.776 2.63874C11.776 1.56811 10.9081 0.700195 9.83747 0.700195C8.76684 0.700195 7.89893 1.56811 7.89893 2.63874C7.89893 3.70937 8.76684 4.57728 9.83747 4.57728Z" stroke="black" stroke-width="1.4" stroke-miterlimit="10"/>
<path d="M7.56296 14.9523L6.08836 23.3051C6.06184 23.4558 6.06529 23.6102 6.09848 23.7595C6.13168 23.9088 6.19398 24.0501 6.28183 24.1754C6.36967 24.3006 6.48134 24.4073 6.61044 24.4894C6.73954 24.5714 6.88355 24.6272 7.03424 24.6536C7.18434 24.6803 7.33825 24.677 7.48706 24.6438C7.63586 24.6105 7.7766 24.5482 7.90112 24.4602C8.02564 24.3722 8.13146 24.2604 8.21247 24.1312C8.29347 24.0021 8.34804 23.8581 8.37302 23.7077L9.39166 17.8918V17.9015C9.39166 17.9015 9.6439 16.325 10.2405 16.325H10.3909C10.9972 16.325 11.2398 17.9015 11.2398 17.9015V17.8966L12.2584 23.7126C12.3124 24.0155 12.4846 24.2846 12.7371 24.4606C12.9895 24.6367 13.3015 24.7052 13.6045 24.6512C13.9074 24.5971 14.1765 24.425 14.3526 24.1725C14.5286 23.9201 14.5971 23.6081 14.5431 23.3051L13.0685 14.9523L12.8308 13.5116C12.6901 12.6336 12.6271 11.2027 12.855 10.6158C13.0491 10.1113 13.5404 9.92696 13.9804 9.92696H18.4624C18.7712 9.92696 19.0673 9.8043 19.2856 9.58598C19.5039 9.36766 19.6266 9.07155 19.6266 8.76279C19.6266 8.45404 19.5039 8.15793 19.2856 7.93961C19.0673 7.72129 18.7712 7.59863 18.4624 7.59863H2.16416C1.85541 7.59863 1.5593 7.72129 1.34097 7.93961C1.12265 8.15793 1 8.45404 1 8.76279C1 9.07155 1.12265 9.36766 1.34097 9.58598C1.5593 9.8043 1.85541 9.92696 2.16416 9.92696H6.65103C7.09875 9.92696 7.58236 10.1113 7.77639 10.6158C8.00437 11.2027 7.94131 12.6336 7.80064 13.5116L7.56296 14.9523Z" stroke="black" stroke-width="1.3" stroke-miterlimit="10"/>
</svg>
