<svg width="32" height="32" viewBox="0 0 32 32" fill="none" xmlns="http://www.w3.org/2000/svg">
<circle cx="16.3185" cy="16.0461" r="15.1818" fill="#7AB2B2" stroke="white"/>
<path fill-rule="evenodd" clip-rule="evenodd" d="M9.67099 10.7407C9.08329 10.7407 8.51967 10.9719 8.1041 11.3835C7.68854 11.7952 7.45508 12.3534 7.45508 12.9355V21.7147C7.45508 22.2968 7.68854 22.8551 8.1041 23.2667C8.51967 23.6783 9.08329 23.9095 9.67099 23.9095H22.9664C23.5541 23.9095 24.1178 23.6783 24.5333 23.2667C24.9489 22.8551 25.1824 22.2968 25.1824 21.7147V12.9355C25.1824 12.3534 24.9489 11.7952 24.5333 11.3835C24.1178 10.9719 23.5541 10.7407 22.9664 10.7407H21.2092C20.9154 10.7406 20.6336 10.625 20.4259 10.4192L19.1839 9.18898C18.7684 8.77734 18.2049 8.54602 17.6172 8.5459H15.0202C14.4325 8.54602 13.869 8.77734 13.4535 9.18898L12.2115 10.4192C12.0038 10.625 11.722 10.7406 11.4282 10.7407H9.67099ZM16.3187 20.6173C16.7552 20.6173 17.1874 20.5322 17.5907 20.3667C17.994 20.2013 18.3604 19.9588 18.669 19.6531C18.9777 19.3474 19.2225 18.9844 19.3896 18.585C19.5566 18.1856 19.6426 17.7575 19.6426 17.3251C19.6426 16.8928 19.5566 16.4647 19.3896 16.0652C19.2225 15.6658 18.9777 15.3029 18.669 14.9972C18.3604 14.6915 17.994 14.449 17.5907 14.2835C17.1874 14.1181 16.7552 14.0329 16.3187 14.0329C15.4372 14.0329 14.5917 14.3798 13.9684 14.9972C13.345 15.6146 12.9949 16.452 12.9949 17.3251C12.9949 18.1983 13.345 19.0357 13.9684 19.6531C14.5917 20.2705 15.4372 20.6173 16.3187 20.6173Z" fill="white"/>
<circle cx="16.3191" cy="17.4094" r="1.77273" fill="white"/>
</svg>
