<svg width="15" height="15" viewBox="0 0 15 15" fill="none" xmlns="http://www.w3.org/2000/svg">
<path fill-rule="evenodd" clip-rule="evenodd" d="M11.191 0.633827C11.042 0.395827 10.8226 0.210189 10.5632 0.102752C10.3038 -0.00468557 10.0173 -0.0285759 9.74371 0.0344069L7.8018 0.480461C7.60279 0.526202 7.396 0.526202 7.19698 0.480461L5.25508 0.0344069C4.98147 -0.0285759 4.69503 -0.00468557 4.43563 0.102752C4.17623 0.210189 3.95678 0.395827 3.80783 0.633827L2.7494 2.323C2.6414 2.49581 2.49559 2.64161 2.32278 2.7507L0.63361 3.80913C0.396021 3.95795 0.210655 4.17704 0.103241 4.436C-0.0041733 4.69495 -0.0283068 4.98092 0.03419 5.25422L0.480245 7.19828C0.52582 7.39694 0.52582 7.60335 0.480245 7.80202L0.03419 9.745C-0.0285497 10.0185 -0.00453765 10.3047 0.102888 10.5638C0.210314 10.823 0.395816 11.0423 0.63361 11.1912L2.32278 12.2496C2.49559 12.3576 2.64139 12.5034 2.75048 12.6762L3.80891 14.3654C4.11348 14.8525 4.69454 15.0933 5.25508 14.9648L7.19698 14.5188C7.396 14.473 7.60279 14.473 7.8018 14.5188L9.74479 14.9648C10.0182 15.0276 10.3044 15.0035 10.5636 14.8961C10.8228 14.7887 11.0421 14.6032 11.191 14.3654L12.2494 12.6762C12.3574 12.5034 12.5032 12.3576 12.676 12.2496L14.3663 11.1912C14.6041 11.0421 14.7895 10.8226 14.8967 10.5632C15.004 10.3038 15.0277 10.0174 14.9646 9.74392L14.5196 7.80202C14.4739 7.60301 14.4739 7.39621 14.5196 7.1972L14.9657 5.25422C15.0285 4.98088 15.0047 4.69475 14.8974 4.43558C14.7902 4.17642 14.6049 3.95708 14.3673 3.80805L12.6771 2.74962C12.5045 2.64141 12.3587 2.49557 12.2505 2.323L11.191 0.633827ZM10.6477 5.09113C10.7145 4.96829 10.731 4.82434 10.6939 4.68954C10.6567 4.55475 10.5687 4.43964 10.4483 4.36842C10.328 4.2972 10.1847 4.27543 10.0487 4.30769C9.91264 4.33995 9.79441 4.42373 9.71887 4.54139L6.89457 9.32163L5.1892 7.68861C5.1386 7.63667 5.07807 7.59544 5.0112 7.56739C4.94433 7.53935 4.87249 7.52506 4.79998 7.52537C4.72747 7.52569 4.65576 7.54061 4.58914 7.56923C4.52251 7.59786 4.46234 7.63962 4.4122 7.692C4.36206 7.74439 4.32299 7.80634 4.29731 7.87415C4.27163 7.94197 4.25987 8.01426 4.26274 8.08672C4.2656 8.15917 4.28303 8.23031 4.31398 8.29589C4.34493 8.36146 4.38878 8.42013 4.44289 8.4684L6.63969 10.5734C6.69848 10.6296 6.76922 10.6718 6.84661 10.6969C6.92401 10.7219 7.00607 10.7291 7.08665 10.718C7.16724 10.7069 7.24427 10.6778 7.312 10.6327C7.37973 10.5876 7.4364 10.5279 7.47779 10.4578L10.6477 5.09113Z" fill="#FE3B3B"/>
</svg>
