<svg width="17" height="18" viewBox="0 0 17 18" fill="none" xmlns="http://www.w3.org/2000/svg">
<path fill-rule="evenodd" clip-rule="evenodd" d="M8.98902 17.262L8.9788 17.2637L8.91833 17.2936L8.9013 17.297L8.88938 17.2936L8.82891 17.2629C8.81982 17.2606 8.81301 17.2623 8.80847 17.268L8.80506 17.2765L8.79058 17.641L8.79484 17.6581L8.80336 17.6691L8.89193 17.7322L8.90471 17.7356L8.91493 17.7322L9.0035 17.6691L9.01372 17.6555L9.01713 17.641L9.00265 17.2774C9.00038 17.2683 8.99583 17.2632 8.98902 17.262ZM9.21387 17.1658L9.20194 17.1675L9.04523 17.2467L9.03672 17.2552L9.03416 17.2646L9.04949 17.6308L9.05375 17.641L9.06056 17.6479L9.23175 17.7262C9.24254 17.729 9.25077 17.7268 9.25645 17.7194L9.25986 17.7075L9.2309 17.1845C9.22806 17.1738 9.22238 17.1675 9.21387 17.1658ZM8.60491 17.1675C8.60116 17.1652 8.59667 17.1645 8.59239 17.1654C8.58811 17.1664 8.58436 17.169 8.58192 17.1726L8.57681 17.1845L8.54785 17.7075C8.54842 17.7177 8.55325 17.7245 8.56233 17.7279L8.5751 17.7262L8.74629 17.647L8.75481 17.6402L8.75736 17.6308L8.7727 17.2646L8.77014 17.2544L8.76162 17.2459L8.60491 17.1675Z" fill="#7AB2B2"/>
<path fill-rule="evenodd" clip-rule="evenodd" d="M8.98902 17.262L8.9788 17.2637L8.91833 17.2936L8.9013 17.297L8.88938 17.2936L8.82891 17.2629C8.81982 17.2606 8.81301 17.2623 8.80847 17.268L8.80506 17.2765L8.79058 17.641L8.79484 17.6581L8.80336 17.6691L8.89193 17.7322L8.90471 17.7356L8.91493 17.7322L9.0035 17.6691L9.01372 17.6555L9.01713 17.641L9.00265 17.2774C9.00038 17.2683 8.99583 17.2632 8.98902 17.262ZM9.21387 17.1658L9.20194 17.1675L9.04523 17.2467L9.03672 17.2552L9.03416 17.2646L9.04949 17.6308L9.05375 17.641L9.06056 17.6479L9.23175 17.7262C9.24254 17.729 9.25077 17.7268 9.25645 17.7194L9.25986 17.7075L9.2309 17.1845C9.22806 17.1738 9.22238 17.1675 9.21387 17.1658ZM8.60491 17.1675C8.60116 17.1652 8.59667 17.1645 8.59239 17.1654C8.58811 17.1664 8.58436 17.169 8.58192 17.1726L8.57681 17.1845L8.54785 17.7075C8.54842 17.7177 8.55325 17.7245 8.56233 17.7279L8.5751 17.7262L8.74629 17.647L8.75481 17.6402L8.75736 17.6308L8.7727 17.2646L8.77014 17.2544L8.76162 17.2459L8.60491 17.1675Z" fill="#7AB2B2"/>
<path fill-rule="evenodd" clip-rule="evenodd" d="M8.98902 17.262L8.9788 17.2637L8.91833 17.2936L8.9013 17.297L8.88938 17.2936L8.82891 17.2629C8.81982 17.2606 8.81301 17.2623 8.80847 17.268L8.80506 17.2765L8.79058 17.641L8.79484 17.6581L8.80336 17.6691L8.89193 17.7322L8.90471 17.7356L8.91493 17.7322L9.0035 17.6691L9.01372 17.6555L9.01713 17.641L9.00265 17.2774C9.00038 17.2683 8.99583 17.2632 8.98902 17.262ZM9.21387 17.1658L9.20194 17.1675L9.04523 17.2467L9.03672 17.2552L9.03416 17.2646L9.04949 17.6308L9.05375 17.641L9.06056 17.6479L9.23175 17.7262C9.24254 17.729 9.25077 17.7268 9.25645 17.7194L9.25986 17.7075L9.2309 17.1845C9.22806 17.1738 9.22238 17.1675 9.21387 17.1658ZM8.60491 17.1675C8.60116 17.1652 8.59667 17.1645 8.59239 17.1654C8.58811 17.1664 8.58436 17.169 8.58192 17.1726L8.57681 17.1845L8.54785 17.7075C8.54842 17.7177 8.55325 17.7245 8.56233 17.7279L8.5751 17.7262L8.74629 17.647L8.75481 17.6402L8.75736 17.6308L8.7727 17.2646L8.77014 17.2544L8.76162 17.2459L8.60491 17.1675Z" fill="#7AB2B2"/>
<path fill-rule="evenodd" clip-rule="evenodd" d="M8.98902 17.262L8.9788 17.2637L8.91833 17.2936L8.9013 17.297L8.88938 17.2936L8.82891 17.2629C8.81982 17.2606 8.81301 17.2623 8.80847 17.268L8.80506 17.2765L8.79058 17.641L8.79484 17.6581L8.80336 17.6691L8.89193 17.7322L8.90471 17.7356L8.91493 17.7322L9.0035 17.6691L9.01372 17.6555L9.01713 17.641L9.00265 17.2774C9.00038 17.2683 8.99583 17.2632 8.98902 17.262ZM9.21387 17.1658L9.20194 17.1675L9.04523 17.2467L9.03672 17.2552L9.03416 17.2646L9.04949 17.6308L9.05375 17.641L9.06056 17.6479L9.23175 17.7262C9.24254 17.729 9.25077 17.7268 9.25645 17.7194L9.25986 17.7075L9.2309 17.1845C9.22806 17.1738 9.22238 17.1675 9.21387 17.1658ZM8.60491 17.1675C8.60116 17.1652 8.59667 17.1645 8.59239 17.1654C8.58811 17.1664 8.58436 17.169 8.58192 17.1726L8.57681 17.1845L8.54785 17.7075C8.54842 17.7177 8.55325 17.7245 8.56233 17.7279L8.5751 17.7262L8.74629 17.647L8.75481 17.6402L8.75736 17.6308L8.7727 17.2646L8.77014 17.2544L8.76162 17.2459L8.60491 17.1675Z" fill="#7AB2B2"/>
<path fill-rule="evenodd" clip-rule="evenodd" d="M14.8664 0.121868C15.0551 0.0083471 15.2805 -0.0276574 15.4952 0.0214112C15.7098 0.0704798 15.8972 0.200806 16.0179 0.385037L16.861 1.67107C16.9709 1.83908 17.018 2.04051 16.9938 2.23982C16.9697 2.43912 16.8759 2.62349 16.729 2.76037L16.7265 2.76378L16.7145 2.77485L16.666 2.81999L16.4744 3.0031C15.4141 4.03164 14.3859 5.09278 13.3913 6.18498C11.5201 8.24264 9.2981 10.9357 7.80255 13.5486C7.38523 14.2776 6.36577 14.4344 5.76107 13.805L0.237927 8.06634C0.158777 7.98407 0.0969739 7.88673 0.0561928 7.7801C0.0154117 7.67346 -0.00351534 7.55972 0.000536653 7.44563C0.00458864 7.33154 0.0315369 7.21943 0.0797798 7.11596C0.128023 7.01249 0.196575 6.91978 0.281363 6.84333L1.95066 5.33756C2.09735 5.2053 2.28545 5.12814 2.48277 5.11928C2.68008 5.11043 2.87434 5.17043 3.03229 5.28901L5.8505 7.40203C10.2528 3.06102 12.7491 1.39513 14.8664 0.121868ZM15.0452 2.00919C13.0949 3.2288 10.6608 4.99774 6.53014 9.12753C6.38519 9.27249 6.19282 9.3603 5.98835 9.37485C5.78387 9.3894 5.58101 9.32971 5.41699 9.20674L2.57068 7.07243L2.07585 7.51871L6.60424 12.2251C8.17644 9.61044 10.3406 7.0077 12.1316 5.03862C13.0748 4.00254 14.0476 2.99373 15.0486 2.01345L15.0452 2.00919Z" fill="#7AB2B2"/>
<path fill-rule="evenodd" clip-rule="evenodd" d="M14.8664 0.121868C15.0551 0.0083471 15.2805 -0.0276574 15.4952 0.0214112C15.7098 0.0704798 15.8972 0.200806 16.0179 0.385037L16.861 1.67107C16.9709 1.83908 17.018 2.04051 16.9938 2.23982C16.9697 2.43912 16.8759 2.62349 16.729 2.76037L16.7265 2.76378L16.7145 2.77485L16.666 2.81999L16.4744 3.0031C15.4141 4.03164 14.3859 5.09278 13.3913 6.18498C11.5201 8.24264 9.2981 10.9357 7.80255 13.5486C7.38523 14.2776 6.36577 14.4344 5.76107 13.805L0.237927 8.06634C0.158777 7.98407 0.0969739 7.88673 0.0561928 7.7801C0.0154117 7.67346 -0.00351534 7.55972 0.000536653 7.44563C0.00458864 7.33154 0.0315369 7.21943 0.0797798 7.11596C0.128023 7.01249 0.196575 6.91978 0.281363 6.84333L1.95066 5.33756C2.09735 5.2053 2.28545 5.12814 2.48277 5.11928C2.68008 5.11043 2.87434 5.17043 3.03229 5.28901L5.8505 7.40203C10.2528 3.06102 12.7491 1.39513 14.8664 0.121868ZM15.0452 2.00919C13.0949 3.2288 10.6608 4.99774 6.53014 9.12753C6.38519 9.27249 6.19282 9.3603 5.98835 9.37485C5.78387 9.3894 5.58101 9.32971 5.41699 9.20674L2.57068 7.07243L2.07585 7.51871L6.60424 12.2251C8.17644 9.61044 10.3406 7.0077 12.1316 5.03862C13.0748 4.00254 14.0476 2.99373 15.0486 2.01345L15.0452 2.00919Z" fill="#7AB2B2"/>
<path fill-rule="evenodd" clip-rule="evenodd" d="M14.8664 0.121868C15.0551 0.0083471 15.2805 -0.0276574 15.4952 0.0214112C15.7098 0.0704798 15.8972 0.200806 16.0179 0.385037L16.861 1.67107C16.9709 1.83908 17.018 2.04051 16.9938 2.23982C16.9697 2.43912 16.8759 2.62349 16.729 2.76037L16.7265 2.76378L16.7145 2.77485L16.666 2.81999L16.4744 3.0031C15.4141 4.03164 14.3859 5.09278 13.3913 6.18498C11.5201 8.24264 9.2981 10.9357 7.80255 13.5486C7.38523 14.2776 6.36577 14.4344 5.76107 13.805L0.237927 8.06634C0.158777 7.98407 0.0969739 7.88673 0.0561928 7.7801C0.0154117 7.67346 -0.00351534 7.55972 0.000536653 7.44563C0.00458864 7.33154 0.0315369 7.21943 0.0797798 7.11596C0.128023 7.01249 0.196575 6.91978 0.281363 6.84333L1.95066 5.33756C2.09735 5.2053 2.28545 5.12814 2.48277 5.11928C2.68008 5.11043 2.87434 5.17043 3.03229 5.28901L5.8505 7.40203C10.2528 3.06102 12.7491 1.39513 14.8664 0.121868ZM15.0452 2.00919C13.0949 3.2288 10.6608 4.99774 6.53014 9.12753C6.38519 9.27249 6.19282 9.3603 5.98835 9.37485C5.78387 9.3894 5.58101 9.32971 5.41699 9.20674L2.57068 7.07243L2.07585 7.51871L6.60424 12.2251C8.17644 9.61044 10.3406 7.0077 12.1316 5.03862C13.0748 4.00254 14.0476 2.99373 15.0486 2.01345L15.0452 2.00919Z" fill="#7AB2B2"/>
<path fill-rule="evenodd" clip-rule="evenodd" d="M14.8664 0.121868C15.0551 0.0083471 15.2805 -0.0276574 15.4952 0.0214112C15.7098 0.0704798 15.8972 0.200806 16.0179 0.385037L16.861 1.67107C16.9709 1.83908 17.018 2.04051 16.9938 2.23982C16.9697 2.43912 16.8759 2.62349 16.729 2.76037L16.7265 2.76378L16.7145 2.77485L16.666 2.81999L16.4744 3.0031C15.4141 4.03164 14.3859 5.09278 13.3913 6.18498C11.5201 8.24264 9.2981 10.9357 7.80255 13.5486C7.38523 14.2776 6.36577 14.4344 5.76107 13.805L0.237927 8.06634C0.158777 7.98407 0.0969739 7.88673 0.0561928 7.7801C0.0154117 7.67346 -0.00351534 7.55972 0.000536653 7.44563C0.00458864 7.33154 0.0315369 7.21943 0.0797798 7.11596C0.128023 7.01249 0.196575 6.91978 0.281363 6.84333L1.95066 5.33756C2.09735 5.2053 2.28545 5.12814 2.48277 5.11928C2.68008 5.11043 2.87434 5.17043 3.03229 5.28901L5.8505 7.40203C10.2528 3.06102 12.7491 1.39513 14.8664 0.121868ZM15.0452 2.00919C13.0949 3.2288 10.6608 4.99774 6.53014 9.12753C6.38519 9.27249 6.19282 9.3603 5.98835 9.37485C5.78387 9.3894 5.58101 9.32971 5.41699 9.20674L2.57068 7.07243L2.07585 7.51871L6.60424 12.2251C8.17644 9.61044 10.3406 7.0077 12.1316 5.03862C13.0748 4.00254 14.0476 2.99373 15.0486 2.01345L15.0452 2.00919Z" fill="#7AB2B2"/>
</svg>
