<svg width="17" height="16" viewBox="0 0 17 16" fill="none" xmlns="http://www.w3.org/2000/svg">
<path fill-rule="evenodd" clip-rule="evenodd" d="M13.3077 6.14425C13.789 6.14425 14.2505 5.95306 14.5909 5.61274C14.9312 5.27242 15.1224 4.81085 15.1224 4.32957C15.1224 3.84828 14.9312 3.38671 14.5909 3.04639C14.2505 2.70607 13.789 2.51488 13.3077 2.51488C12.8264 2.51488 12.3648 2.70607 12.0245 3.04639C11.6842 3.38671 11.493 3.84828 11.493 4.32957C11.493 4.81085 11.6842 5.27242 12.0245 5.61274C12.3648 5.95306 12.8264 6.14425 13.3077 6.14425ZM13.3077 7.95894C13.9865 7.95888 14.6517 7.76846 15.2277 7.4093C15.8037 7.05015 16.2674 6.53666 16.5662 5.92716C16.865 5.31766 16.9869 4.63658 16.918 3.96128C16.8491 3.28598 16.5923 2.64354 16.1765 2.10691C15.7608 1.57029 15.203 1.16101 14.5663 0.925545C13.9297 0.690083 13.2397 0.637883 12.5749 0.774875C11.9101 0.911868 11.297 1.23256 10.8053 1.70053C10.3136 2.16849 9.96295 2.76498 9.79325 3.42222H0.907343C0.666701 3.42222 0.435915 3.51782 0.265755 3.68798C0.095595 3.85814 2.09184e-07 4.08892 2.09184e-07 4.32957C2.09184e-07 4.57021 0.095595 4.801 0.265755 4.97116C0.435915 5.14131 0.666701 5.23691 0.907343 5.23691H9.79325C9.99442 6.01603 10.4488 6.7062 11.085 7.19893C11.7211 7.69166 12.503 7.95901 13.3077 7.95894ZM5.44406 11.5883C5.44406 12.0696 5.25287 12.5312 4.91255 12.8715C4.57223 13.2118 4.11066 13.403 3.62937 13.403C3.14809 13.403 2.68651 13.2118 2.34619 12.8715C2.00588 12.5312 1.81469 12.0696 1.81469 11.5883C1.81469 11.107 2.00588 10.6455 2.34619 10.3051C2.68651 9.96481 3.14809 9.77362 3.62937 9.77362C4.11066 9.77362 4.57223 9.96481 4.91255 10.3051C5.25287 10.6455 5.44406 11.107 5.44406 11.5883ZM7.14381 12.4957C6.92133 13.3494 6.39558 14.0929 5.66483 14.5872C4.93409 15.0816 4.04834 15.2929 3.17312 15.1817C2.29791 15.0706 1.49311 14.6445 0.909147 13.9832C0.325179 13.3219 0.00199815 12.4706 2.09184e-07 11.5883C-0.000299627 10.7047 0.32174 9.85138 0.905728 9.18831C1.48972 8.52523 2.29554 8.09796 3.17207 7.98663C4.04861 7.8753 4.93566 8.08756 5.66687 8.58359C6.39808 9.07962 6.92322 9.82537 7.14381 10.681H16.0297C16.2704 10.681 16.5011 10.7766 16.6713 10.9467C16.8415 11.1169 16.9371 11.3477 16.9371 11.5883C16.9371 11.829 16.8415 12.0597 16.6713 12.2299C16.5011 12.4001 16.2704 12.4957 16.0297 12.4957H7.14381Z" fill="black"/>
</svg>
