<svg width="19" height="16" viewBox="0 0 19 16" fill="none" xmlns="http://www.w3.org/2000/svg">
<path fill-rule="evenodd" clip-rule="evenodd" d="M2.69471 0.280712C2.50611 0.0985537 2.25351 -0.00224062 1.99131 3.78026e-05C1.72911 0.00231622 1.4783 0.107485 1.29289 0.292893C1.10749 0.478301 1.00232 0.729114 1.00004 0.99131C0.997759 1.25351 1.09855 1.50611 1.28071 1.69471L15.2807 15.6947C15.4693 15.8769 15.7219 15.9777 15.9841 15.9754C16.2463 15.9731 16.4971 15.8679 16.6825 15.6825C16.8679 15.4971 16.9731 15.2463 16.9754 14.9841C16.9777 14.7219 16.8769 14.4693 16.6947 14.2807L15.2217 12.8077C16.7792 11.5658 17.931 9.88764 18.5297 7.98771C17.2557 3.93071 13.4657 0.987712 8.98771 0.987712C7.42014 0.985586 5.87421 1.35357 4.47571 2.06171L2.69471 0.280712ZM6.95571 4.54071L8.46971 6.05571C8.8088 5.96566 9.1656 5.96626 9.50438 6.05744C9.84317 6.14862 10.1521 6.32719 10.4001 6.57528C10.6482 6.82336 10.8268 7.13226 10.918 7.47104C11.0092 7.80983 11.0098 8.16662 10.9197 8.50571L12.4337 10.0197C12.8847 9.25573 13.0689 8.36351 12.9574 7.48339C12.8458 6.60327 12.4448 5.78521 11.8175 5.15789C11.1902 4.53057 10.3722 4.12961 9.49204 4.01806C8.61192 3.90652 7.71969 4.08973 6.95571 4.54071Z" fill="#484848"/>
<path d="M11.996 14.119L9.292 11.414C8.31969 11.3531 7.40303 10.9394 6.71406 10.2506C6.02509 9.56185 5.61117 8.6453 5.55 7.673L1.877 4C1.03221 5.00601 0.394349 6.16892 0 7.422C1.274 11.479 5.065 14.422 9.542 14.422C10.389 14.422 11.211 14.317 11.996 14.119Z" fill="#484848"/>
</svg>
