<svg width="14" height="19" viewBox="0 0 14 19" fill="none" xmlns="http://www.w3.org/2000/svg">
<path d="M7 14C6.53587 14 6.09075 13.8156 5.76256 13.4874C5.43437 13.1592 5.25 12.7141 5.25 12.25C5.25 11.2788 6.02875 10.5 7 10.5C7.46413 10.5 7.90925 10.6844 8.23744 11.0126C8.56563 11.3408 8.75 11.7859 8.75 12.25C8.75 12.7141 8.56563 13.1592 8.23744 13.4874C7.90925 13.8156 7.46413 14 7 14ZM12.25 16.625V7.875H1.75V16.625H12.25ZM12.25 6.125C12.7141 6.125 13.1592 6.30937 13.4874 6.63756C13.8156 6.96575 14 7.41087 14 7.875V16.625C14 17.0891 13.8156 17.5342 13.4874 17.8624C13.1592 18.1906 12.7141 18.375 12.25 18.375H1.75C1.28587 18.375 0.840752 18.1906 0.512563 17.8624C0.184374 17.5342 0 17.0891 0 16.625V7.875C0 6.90375 0.77875 6.125 1.75 6.125H2.625V4.375C2.625 3.21468 3.08594 2.10188 3.90641 1.28141C4.72688 0.460936 5.83968 0 7 0C7.57453 0 8.14344 0.113163 8.67424 0.333027C9.20504 0.552891 9.68734 0.875152 10.0936 1.28141C10.4998 1.68766 10.8221 2.16996 11.042 2.70076C11.2618 3.23156 11.375 3.80047 11.375 4.375V6.125H12.25ZM7 1.75C6.30381 1.75 5.63613 2.02656 5.14384 2.51884C4.65156 3.01113 4.375 3.67881 4.375 4.375V6.125H9.625V4.375C9.625 3.67881 9.34844 3.01113 8.85616 2.51884C8.36387 2.02656 7.69619 1.75 7 1.75Z" fill="black"/>
</svg>
