<svg width="19" height="23" viewBox="0 0 19 23" fill="none" xmlns="http://www.w3.org/2000/svg">
<path d="M6.60782 3.94927C7.17132 2.30023 9.44982 2.25029 10.1179 3.79945L10.1745 3.95021L10.9349 6.17406C11.1092 6.68407 11.3908 7.15077 11.7608 7.54269C12.1307 7.93461 12.5805 8.24263 13.0796 8.44596L13.2841 8.52229L15.5079 9.28179C17.157 9.84529 17.2069 12.1238 15.6587 12.7919L15.5079 12.8484L13.2841 13.6089C12.7739 13.783 12.307 14.0646 11.9149 14.4346C11.5228 14.8046 11.2147 15.2543 11.0112 15.7536L10.9349 15.9571L10.1754 18.1819C9.61189 19.8309 7.33339 19.8809 6.66624 18.3327L6.60782 18.1819L5.84832 15.958C5.67416 15.4479 5.39259 14.981 5.02261 14.5889C4.65263 14.1968 4.20285 13.8886 3.70363 13.6852L3.50009 13.6089L1.27624 12.8494C-0.37374 12.2859 -0.423682 10.0074 1.12547 9.34021L1.27624 9.28179L3.50009 8.52229C4.0101 8.34802 4.4768 8.0664 4.86872 7.69642C5.26063 7.32645 5.56865 6.87673 5.77199 6.3776L5.84832 6.17406L6.60782 3.94927ZM8.39161 4.558L7.63211 6.78185C7.36674 7.55954 6.93505 8.27004 6.36709 8.86387C5.79913 9.45771 5.10856 9.92061 4.34345 10.2203L4.10788 10.3061L1.88403 11.0656L4.10788 11.8251C4.88556 12.0904 5.59607 12.5221 6.1899 13.0901C6.78374 13.6581 7.24663 14.3486 7.54636 15.1137L7.63211 15.3493L8.39161 17.5732L9.15111 15.3493C9.41647 14.5716 9.84816 13.8611 10.4161 13.2673C10.9841 12.6735 11.6747 12.2106 12.4398 11.9108L12.6753 11.826L14.8992 11.0656L12.6753 10.3061C11.8976 10.0407 11.1871 9.60903 10.5933 9.04107C9.99948 8.47311 9.53658 7.78253 9.23686 7.01743L9.15205 6.78185L8.39161 4.558ZM15.9301 0.700195C16.1064 0.700195 16.2791 0.749646 16.4287 0.842928C16.5783 0.93621 16.6987 1.06958 16.7763 1.22789L16.8215 1.33814L17.1513 2.30495L18.119 2.63475C18.2957 2.69477 18.4506 2.80589 18.564 2.95402C18.6775 3.10215 18.7444 3.28063 18.7563 3.46683C18.7682 3.65303 18.7246 3.83858 18.6309 3.99996C18.5373 4.16133 18.3978 4.29127 18.2302 4.37331L18.119 4.41854L17.1522 4.74835L16.8224 5.7161C16.7623 5.89271 16.6511 6.04751 16.5029 6.16086C16.3547 6.27422 16.1762 6.34103 15.99 6.35284C15.8038 6.36464 15.6183 6.32091 15.457 6.22719C15.2957 6.13346 15.1658 5.99395 15.0839 5.82635L15.0386 5.7161L14.7088 4.74929L13.7411 4.41948C13.5644 4.35946 13.4096 4.24835 13.2961 4.10022C13.1827 3.95209 13.1157 3.77361 13.1038 3.58741C13.0919 3.4012 13.1356 3.21566 13.2292 3.05428C13.3229 2.8929 13.4623 2.76296 13.6299 2.68093L13.7411 2.6357L14.7079 2.30589L15.0377 1.33814C15.1012 1.15196 15.2215 0.99034 15.3815 0.875935C15.5415 0.761529 15.7333 0.700077 15.9301 0.700195Z" fill="black"/>
</svg>
