<svg width="20" height="17" viewBox="0 0 20 17" fill="none" xmlns="http://www.w3.org/2000/svg">
<path d="M7.47372 0C6.48264 0 5.53216 0.393704 4.83136 1.0945C4.13056 1.7953 3.73686 2.74578 3.73686 3.73686C3.73686 4.72794 4.13056 5.67842 4.83136 6.37922C5.53216 7.08002 6.48264 7.47372 7.47372 7.47372C8.4648 7.47372 9.41528 7.08002 10.1161 6.37922C10.8169 5.67842 11.2106 4.72794 11.2106 3.73686C11.2106 2.74578 10.8169 1.7953 10.1161 1.0945C9.41528 0.393704 8.4648 0 7.47372 0ZM7.47372 1.86843C7.96926 1.86843 8.4445 2.06528 8.7949 2.41568C9.1453 2.76608 9.34215 3.24132 9.34215 3.73686C9.34215 4.2324 9.1453 4.70764 8.7949 5.05804C8.4445 5.40844 7.96926 5.60529 7.47372 5.60529C6.97818 5.60529 6.50294 5.40844 6.15254 5.05804C5.80214 4.70764 5.60529 4.2324 5.60529 3.73686C5.60529 3.24132 5.80214 2.76608 6.15254 2.41568C6.50294 2.06528 6.97818 1.86843 7.47372 1.86843ZM14.0132 7.47372C13.8638 7.47372 13.789 7.54846 13.789 7.69793L13.5461 8.87504C13.3406 9.0432 13.0416 9.19268 12.8174 9.34215L11.6216 8.87504C11.5469 8.87504 11.3974 8.87504 11.3227 8.96847L10.4258 10.6127C10.3511 10.6874 10.3511 10.8369 10.5006 10.9116L11.4722 11.6777V12.6119L10.5006 13.378C10.4258 13.4527 10.3511 13.6022 10.4258 13.6769L11.3227 15.3211C11.3974 15.4145 11.5469 15.4146 11.6216 15.4146L12.8174 14.9474C13.0416 15.0969 13.3406 15.2464 13.5461 15.4146L13.789 16.5917C13.789 16.7411 13.8638 16.8159 14.0132 16.8159H15.8817C15.9564 16.8159 16.1059 16.7411 16.1059 16.5917L16.2553 15.4146C16.5543 15.2464 16.8532 15.0969 17.0775 14.9474L18.2172 15.4146C18.348 15.4146 18.4975 15.4145 18.4975 15.3211L19.469 13.6769C19.5438 13.6022 19.469 13.4527 19.3943 13.378L18.4227 12.6119V11.6777L19.3943 10.9116C19.469 10.8369 19.5438 10.6874 19.469 10.6127L18.4975 8.96847C18.4975 8.87504 18.348 8.87504 18.2172 8.87504L17.0775 9.34215C16.8532 9.19268 16.5543 9.0432 16.2553 8.87504L16.1059 7.69793C16.1059 7.54846 15.9564 7.47372 15.8817 7.47372H14.0132ZM7.47372 8.40794C4.97937 8.40794 0 9.65044 0 12.1448V14.9474H9.03386C8.77228 14.3963 8.58544 13.7984 8.49202 13.1724H1.77501V12.1448C1.77501 11.5469 4.6991 10.1829 7.47372 10.1829C7.87543 10.1829 8.28649 10.2203 8.6882 10.2764C8.87504 9.67847 9.12728 9.11794 9.45426 8.60412C8.72557 8.48267 8.03425 8.40794 7.47372 8.40794ZM14.9848 10.7435C15.7322 10.7435 16.3488 11.3601 16.3488 12.1822C16.3488 12.9295 15.7322 13.5461 14.9848 13.5461C14.1627 13.5461 13.5461 12.9295 13.5461 12.1822C13.5461 11.3601 14.1627 10.7435 14.9848 10.7435Z" fill="black"/>
</svg>
