<svg width="16" height="17" viewBox="0 0 16 17" fill="none" xmlns="http://www.w3.org/2000/svg">
<path d="M7.75 0.700195C8.77771 0.700195 9.76334 1.10456 10.49 1.82435C11.2167 2.54413 11.625 3.52036 11.625 4.53829C11.625 5.55622 11.2167 6.53245 10.49 7.25223C9.76334 7.97202 8.77771 8.37639 7.75 8.37639C6.72229 8.37639 5.73666 7.97202 5.00996 7.25223C4.28326 6.53245 3.875 5.55622 3.875 4.53829C3.875 3.52036 4.28326 2.54413 5.00996 1.82435C5.73666 1.10456 6.72229 0.700195 7.75 0.700195ZM7.75 2.61924C7.23614 2.61924 6.74333 2.82143 6.37998 3.18132C6.01663 3.54121 5.8125 4.02933 5.8125 4.53829C5.8125 5.04725 6.01663 5.53537 6.37998 5.89526C6.74333 6.25515 7.23614 6.45734 7.75 6.45734C8.26386 6.45734 8.75667 6.25515 9.12002 5.89526C9.48337 5.53537 9.6875 5.04725 9.6875 4.53829C9.6875 4.02933 9.48337 3.54121 9.12002 3.18132C8.75667 2.82143 8.26386 2.61924 7.75 2.61924ZM7.75 9.33591C10.3366 9.33591 15.5 10.6121 15.5 13.174V16.0526H0V13.174C0 10.6121 5.16344 9.33591 7.75 9.33591ZM7.75 11.159C4.87281 11.159 1.84063 12.5599 1.84063 13.174V14.2295H13.6594V13.174C13.6594 12.5599 10.6272 11.159 7.75 11.159Z" fill="black"/>
</svg>
