<svg width="20" height="17" viewBox="0 0 20 17" fill="none" xmlns="http://www.w3.org/2000/svg">
<path d="M14.0358 8.97609L14.2426 7.97372H15.6369L15.7593 8.93803L15.791 9.18753L16.0102 9.31083C16.1234 9.37449 16.2274 9.43087 16.3233 9.48291C16.5095 9.58387 16.6656 9.66848 16.8001 9.75818L17.0212 9.90557L17.2671 9.8048L18.1879 9.42742L18.9129 10.6544L18.1131 11.2851L17.9227 11.4352V11.6777V12.6119V12.8544L18.1131 13.0045L18.9129 13.6352L18.1879 14.8622L17.2671 14.4848L17.0212 14.384L16.8001 14.5314C16.6656 14.6211 16.5095 14.7057 16.3233 14.8067C16.2274 14.8587 16.1234 14.9151 16.0102 14.9788L15.791 15.1021L15.7593 15.3516L15.6369 16.3159H14.2426L14.0358 15.3135L14 15.1399L13.8627 15.0276C13.7294 14.9185 13.5758 14.8231 13.446 14.7452C13.4074 14.7221 13.3711 14.7006 13.3368 14.6802C13.2448 14.6257 13.1668 14.5794 13.0948 14.5314L12.8781 14.387L12.6355 14.4817L11.6453 14.8685L10.9754 13.6403L11.7817 13.0045L11.9722 12.8544V12.6119V11.6777V11.4352L11.7817 11.2851L10.9754 10.6493L11.6453 9.4211L12.6355 9.80788L12.8781 9.90264L13.0948 9.75818C13.1668 9.71017 13.2448 9.66389 13.3368 9.60938C13.3711 9.58903 13.4074 9.56752 13.446 9.54435C13.5758 9.46649 13.7294 9.37113 13.8627 9.26202L14 9.14974L14.0358 8.97609ZM9.76253 1.44805L10.1075 1.10312L9.76253 1.44805C10.3696 2.05508 10.7106 2.87839 10.7106 3.73686C10.7106 4.59533 10.3696 5.41864 9.76253 6.02567C9.1555 6.6327 8.33219 6.97372 7.47372 6.97372C6.61525 6.97372 5.79194 6.6327 5.18491 6.02567C4.57789 5.41864 4.23686 4.59533 4.23686 3.73686C4.23686 2.87839 4.57789 2.05508 5.18491 1.44805C5.79194 0.841025 6.61525 0.5 7.47372 0.5C8.33219 0.5 9.1555 0.841025 9.76253 1.44805ZM1.27501 13.1724V13.6724H1.77501H8.07519C8.1322 13.9368 8.20459 14.1956 8.29106 14.4474H0.5V12.1448C0.5 11.7043 0.715777 11.2828 1.15629 10.8759C1.60039 10.4656 2.23941 10.1042 2.98711 9.80525C4.48327 9.20701 6.28857 8.90794 7.47372 8.90794C7.81768 8.90794 8.2221 8.93842 8.66253 8.99331C8.54423 9.23257 8.43893 9.47873 8.34582 9.73095C8.05799 9.7012 7.76502 9.68294 7.47372 9.68294C6.01228 9.68294 4.52614 10.0403 3.40395 10.4732C2.84299 10.6895 2.35502 10.9316 1.99764 11.1702C1.82041 11.2885 1.65849 11.417 1.53503 11.5537C1.42607 11.6743 1.27501 11.8796 1.27501 12.1448V13.1724ZM9.14845 2.06213C8.70429 1.61796 8.10187 1.36843 7.47372 1.36843C6.84557 1.36843 6.24316 1.61796 5.79899 2.06213C5.35482 2.50629 5.10529 3.10871 5.10529 3.73686C5.10529 4.36501 5.35482 4.96743 5.79899 5.41159C6.24315 5.85576 6.84557 6.10529 7.47372 6.10529C8.10187 6.10529 8.70429 5.85576 9.14845 5.41159C9.59262 4.96743 9.84215 4.36501 9.84215 3.73686C9.84215 3.10871 9.59262 2.50629 9.14845 2.06213ZM16.8488 12.1822C16.8488 11.1015 16.0256 10.2435 14.9848 10.2435C13.8866 10.2435 13.0461 11.0839 13.0461 12.1822C13.0461 13.223 13.9042 14.0461 14.9848 14.0461C16.0083 14.0461 16.8488 13.2057 16.8488 12.1822Z" fill="black" stroke="black"/>
</svg>
