<svg xmlns="http://www.w3.org/2000/svg" xmlns:xlink="http://www.w3.org/1999/xlink" width="40" zoomAndPan="magnify" viewBox="0 0 30 30.000001" height="40" preserveAspectRatio="xMidYMid meet" version="1.0"><defs><g/><clipPath id="e235849924"><path d="M 0.484375 0 L 29.515625 0 L 29.515625 29.03125 L 0.484375 29.03125 Z M 0.484375 0 " clip-rule="nonzero"/></clipPath></defs><g clip-path="url(#e235849924)"><path fill="#f3f3f3" d="M 0.484375 0 L 29.515625 0 L 29.515625 29.03125 L 0.484375 29.03125 Z M 0.484375 0 " fill-opacity="1" fill-rule="nonzero"/></g><g fill="#000000" fill-opacity="1"><g transform="translate(3.932891, 18.873131)"><g><path d="M 2.71875 -3.640625 L 2.71875 -1.375 L 6.671875 -1.375 L 6.671875 0 L 1.078125 0 L 1.078125 -8.28125 L 6.578125 -8.28125 L 6.578125 -6.921875 L 2.71875 -6.921875 L 2.71875 -4.984375 L 6.09375 -4.984375 L 6.09375 -3.640625 Z M 2.71875 -3.640625 "/></g></g><g transform="translate(11.060538, 18.873131)"><g><path d="M 6.640625 -8.28125 L 6.640625 -6.90625 L 4.25 -6.90625 L 4.25 0 L 2.625 0 L 2.625 -6.90625 L 0.234375 -6.90625 L 0.234375 -8.28125 Z M 6.640625 -8.28125 "/></g></g><g transform="translate(17.933017, 18.873131)"><g><path d="M 4.53125 0.125 C 3.769531 0.125 3.097656 -0.03125 2.515625 -0.34375 C 1.929688 -0.664062 1.472656 -1.144531 1.140625 -1.78125 C 0.816406 -2.425781 0.65625 -3.210938 0.65625 -4.140625 C 0.65625 -5.078125 0.816406 -5.863281 1.140625 -6.5 C 1.472656 -7.132812 1.929688 -7.609375 2.515625 -7.921875 C 3.097656 -8.242188 3.769531 -8.40625 4.53125 -8.40625 C 5.320312 -8.40625 5.992188 -8.25 6.546875 -7.9375 C 7.109375 -7.625 7.507812 -7.148438 7.75 -6.515625 L 6.5625 -5.78125 L 6.421875 -5.78125 C 6.242188 -6.21875 6 -6.53125 5.6875 -6.71875 C 5.382812 -6.90625 5 -7 4.53125 -7 C 3.84375 -7 3.304688 -6.769531 2.921875 -6.3125 C 2.535156 -5.851562 2.34375 -5.128906 2.34375 -4.140625 C 2.34375 -3.160156 2.535156 -2.441406 2.921875 -1.984375 C 3.304688 -1.523438 3.84375 -1.296875 4.53125 -1.296875 C 5.601562 -1.296875 6.257812 -1.820312 6.5 -2.875 L 6.65625 -2.875 L 7.859375 -2.234375 C 7.628906 -1.453125 7.238281 -0.863281 6.6875 -0.46875 C 6.144531 -0.0703125 5.425781 0.125 4.53125 0.125 Z M 4.53125 0.125 "/></g></g></g></svg>