<?xml version="1.0" standalone="no"?>
<!DOCTYPE svg PUBLIC "-//W3C//DTD SVG 20010904//EN"
 "http://www.w3.org/TR/2001/REC-SVG-20010904/DTD/svg10.dtd">
<svg version="1.0" xmlns="http://www.w3.org/2000/svg"
 width="1024.000000pt" height="1024.000000pt" viewBox="0 0 1024.000000 1024.000000"
 preserveAspectRatio="xMidYMid meet">

<g transform="translate(0.000000,1024.000000) scale(0.100000,-0.100000)"
fill="#000000" stroke="none">
<path d="M4760 9939 c-1506 -121 -2847 -911 -3675 -2164 -425 -643 -678 -1348
-771 -2145 -22 -190 -30 -637 -15 -840 104 -1422 794 -2690 1926 -3540 686
-515 1471 -827 2355 -936 181 -22 720 -31 918 -14 1021 82 1962 469 2747 1128
131 111 421 399 536 533 644 753 1020 1614 1146 2619 15 118 18 218 18 540 0
413 -7 511 -56 800 -287 1706 -1468 3131 -3095 3733 -370 137 -750 226 -1165
273 -171 19 -697 27 -869 13z m737 -269 c779 -62 1523 -322 2173 -758 438
-294 835 -676 1142 -1097 281 -385 493 -799 643 -1250 244 -737 298 -1504 159
-2275 -107 -594 -334 -1163 -670 -1678 -82 -125 -264 -372 -304 -412 -3 -3
-44 -50 -92 -105 -96 -111 -325 -339 -433 -431 -38 -32 -72 -61 -75 -64 -3 -3
-26 -22 -52 -42 -1210 -972 -2833 -1263 -4313 -773 -809 268 -1526 758 -2071
1415 -544 657 -894 1453 -1008 2300 -58 430 -51 970 19 1365 85 487 214 885
420 1295 97 195 124 243 236 419 345 545 845 1045 1390 1390 174 110 224 139
409 231 542 272 1106 428 1699 470 80 5 166 12 191 14 67 6 392 -3 537 -14z"/>
<path d="M4945 7654 c-325 -21 -712 -98 -889 -179 -28 -12 -91 -39 -139 -59
-420 -173 -806 -477 -1081 -851 -81 -110 -123 -171 -145 -212 l-11 -22 37 17
c21 10 76 37 121 61 89 45 260 106 329 117 40 6 42 5 49 -22 3 -16 10 -45 14
-64 17 -67 70 -344 70 -362 0 -11 -10 -20 -27 -23 -80 -17 -222 -70 -286 -107
-42 -24 -104 -75 -149 -119 -90 -92 -135 -175 -175 -326 -34 -130 -39 -377 -9
-488 34 -131 84 -222 175 -317 89 -94 153 -139 319 -223 160 -81 291 -99 548
-74 118 11 394 63 422 79 9 5 91 28 182 51 91 22 237 66 325 96 88 30 216 74
285 98 135 46 354 134 474 190 41 19 78 35 81 35 3 0 61 24 128 54 67 30 206
91 309 136 l187 83 6 66 c12 121 72 283 111 298 8 3 14 11 14 18 0 7 7 15 15
19 8 3 20 17 25 31 5 14 21 30 35 35 14 5 25 14 25 20 0 6 12 16 28 23 15 6
32 17 37 25 21 26 178 74 262 79 108 8 189 -9 291 -59 99 -48 173 -113 236
-206 76 -110 90 -164 90 -322 0 -115 -3 -144 -22 -194 -62 -167 -194 -302
-361 -368 -48 -19 -75 -22 -196 -23 -123 0 -147 3 -195 23 -50 20 -128 63
-172 94 -13 10 -35 3 -120 -35 -56 -25 -152 -68 -213 -95 -60 -27 -164 -73
-230 -101 -66 -29 -129 -59 -141 -66 -11 -7 -81 -36 -155 -63 -73 -28 -196
-75 -271 -106 -123 -49 -505 -177 -708 -237 -41 -12 -79 -25 -85 -29 -18 -13
-277 -68 -488 -104 -338 -58 -665 -36 -902 59 -32 13 -61 22 -64 19 -3 -2 51
-61 119 -130 243 -246 474 -407 790 -553 107 -50 290 -121 310 -121 6 0 32 -9
57 -21 46 -21 234 -65 394 -93 301 -52 676 -57 966 -11 138 22 191 20 249 -11
94 -50 319 -162 369 -182 28 -12 109 -41 180 -67 72 -25 144 -52 160 -60 37
-19 347 -101 412 -110 26 -4 56 -9 67 -12 10 -3 17 -1 15 5 -2 5 -62 72 -134
147 -163 173 -301 345 -365 456 -28 48 -50 91 -50 96 0 10 149 113 164 113 13
0 158 101 281 195 135 104 262 220 349 319 l59 68 -38 -16 c-64 -27 -267 -78
-275 -69 -5 4 -18 58 -30 118 -12 61 -33 159 -46 219 -14 60 -21 112 -17 116
4 3 40 16 80 28 96 30 246 104 310 154 62 47 151 155 185 224 103 205 120 539
38 757 -80 214 -344 427 -602 486 -120 28 -229 34 -370 21 -189 -17 -482 -75
-698 -137 -199 -57 -567 -178 -585 -193 -13 -10 -312 -130 -325 -130 -10 0
-148 -59 -465 -198 -88 -38 -200 -91 -249 -116 -50 -25 -95 -46 -101 -46 -8 0
-14 -28 -18 -77 -16 -231 -206 -457 -437 -518 -74 -20 -232 -19 -301 1 -178
52 -336 195 -399 362 -44 116 -45 293 -1 418 55 156 195 291 364 352 61 22 89
26 182 27 132 0 204 -21 314 -91 80 -52 75 -52 196 8 221 110 351 166 805 347
113 45 214 87 224 93 29 15 281 104 441 155 202 63 490 139 635 167 350 69
708 74 940 15 94 -24 374 -161 470 -229 16 -11 31 -20 35 -20 13 0 -66 134
-138 235 -79 110 -217 273 -299 351 -153 147 -430 355 -553 416 -27 13 -99 49
-160 80 -60 30 -137 65 -170 78 -33 13 -65 27 -71 32 -15 11 -137 53 -244 83
-101 28 -270 60 -435 80 -119 15 -464 26 -580 19z"/>
<path d="M8370 7132 c-23 -24 -29 -40 -35 -103 -4 -40 -11 -78 -15 -84 -4 -5
-10 -39 -14 -75 -8 -78 -64 -572 -70 -617 -4 -26 -1 -33 16 -39 11 -3 53 -37
93 -75 40 -38 75 -69 79 -69 3 0 6 14 6 31 0 18 11 127 25 243 95 816 91 748
47 787 -44 39 -93 39 -132 1z"/>
<path d="M1904 7140 c-32 -13 -64 -59 -64 -92 0 -47 69 -531 79 -553 5 -11 21
-103 35 -204 14 -101 28 -186 30 -188 2 -2 25 12 52 32 26 20 64 45 86 56 23
12 38 26 38 38 0 45 -120 842 -129 860 -27 49 -79 71 -127 51z"/>
<path d="M7990 5274 l0 -895 88 45 c127 66 237 178 297 301 68 139 75 193 75
555 0 349 -8 413 -65 537 -41 89 -80 146 -142 207 -54 54 -128 108 -136 100
-3 -3 -19 2 -36 10 -17 9 -42 21 -56 26 l-25 10 0 -896z"/>
<path d="M2258 6086 c-26 -13 -50 -21 -52 -19 -9 10 -94 -58 -155 -123 -77
-82 -143 -212 -167 -326 -23 -114 -16 -744 10 -833 51 -176 176 -331 333 -413
44 -23 86 -42 92 -42 8 0 11 251 11 890 0 706 -3 890 -12 890 -7 0 -34 -11
-60 -24z"/>
</g>
</svg>
