<svg width="45" height="26" viewBox="0 0 45 26" fill="none" xmlns="http://www.w3.org/2000/svg">
<path d="M17.2551 11.0093C22.604 1.00223 25.2785 1.00223 26.17 1.00223C27.0615 1.00223 29.736 1.00223 35.085 11.0093M17.2551 11.0093C11.9061 1.00223 10.1231 1 8.34007 1M17.2551 11.0093C22.604 21.0164 25.2785 21.0164 26.17 21.0164C27.0615 21.0164 29.736 21.0164 35.085 11.0093M35.085 11.0093C40.434 21.0164 42.217 21.0164 44 21.0164M35.085 11.0093L37.8843 6.14395C41.145 1 42.5714 1 44 1" stroke="black" stroke-width="1.5" stroke-linecap="round" stroke-linejoin="round"/>
<path fill-rule="evenodd" clip-rule="evenodd" d="M12.5107 15.1081C12.5107 15.4073 12.3192 15.6728 12.0354 15.7674L8.97691 16.787L7.9574 19.8455C7.8628 20.1293 7.59721 20.3207 7.29806 20.3207C6.9989 20.3207 6.73331 20.1293 6.63871 19.8455L5.6192 16.787L2.56069 15.7674C2.27689 15.6728 2.08546 15.4073 2.08546 15.1081C2.08546 14.8089 2.27689 14.5434 2.56069 14.4488L5.6192 13.4293L6.63871 10.3707C6.73331 10.0869 6.9989 9.89551 7.29806 9.89551C7.59721 9.89551 7.8628 10.0869 7.9574 10.3707L8.97691 13.4293L12.0354 14.4488C12.3192 14.5434 12.5107 14.8089 12.5107 15.1081ZM9.61782 15.1081L8.20767 14.6381C8.00014 14.5689 7.83728 14.406 7.7681 14.1985L7.29806 12.7883L6.82801 14.1985C6.75883 14.406 6.59598 14.5689 6.38844 14.6381L4.9783 15.1081L6.38844 15.5782C6.59598 15.6473 6.75883 15.8102 6.82801 16.0177L7.29806 17.4279L7.7681 16.0177C7.83728 15.8102 8.00014 15.6473 8.20767 15.5782L9.61782 15.1081Z" fill="black"/>
<path fill-rule="evenodd" clip-rule="evenodd" d="M15.0127 20.6682C15.0127 20.8477 14.8978 21.007 14.7276 21.0638L13.101 21.606L12.5588 23.2326C12.502 23.4029 12.3426 23.5178 12.1631 23.5178C11.9837 23.5178 11.8243 23.4029 11.7675 23.2326L11.2253 21.606L9.59873 21.0638C9.42845 21.007 9.31359 20.8477 9.31359 20.6682C9.31359 20.4887 9.42845 20.3294 9.59873 20.2726L11.2253 19.7304L11.7675 18.1038C11.8243 17.9335 11.9837 17.8187 12.1631 17.8187C12.3426 17.8187 12.502 17.9335 12.5588 18.1038L13.101 19.7304L14.7276 20.2726C14.8978 20.3294 15.0127 20.4887 15.0127 20.6682Z" fill="black"/>
</svg>
