<svg width="25" height="25" viewBox="0 0 25 25" fill="none" xmlns="http://www.w3.org/2000/svg">
<path d="M15.3471 23.8361L9.34111 23.8488C8.08321 23.8493 6.84614 23.6732 5.71486 23.0783C5.59062 23.6308 5.26749 23.6377 4.75042 23.637C3.81286 23.6357 2.86681 23.4502 1.98554 23.1369C0.664181 22.6671 0.976165 22.3737 1.20592 21.2379L2.41901 14.5801L3.31455 7.98663C3.35745 7.61678 3.37709 7.24115 3.44543 6.87507C3.7041 5.48924 4.65767 4.26098 5.9404 3.67072C6.24399 3.53103 6.56789 3.42885 6.88667 3.32979L8.03952 2.936C8.54076 2.76406 8.32452 2.88653 8.65132 2.55816C9.08622 2.12109 9.59313 1.77379 9.89245 1.21777C9.96164 1.08925 10.0433 1.04287 10.1778 1.00323C10.4148 0.991215 10.6452 1.04059 10.8793 1.04658L13.3536 1.08767C13.4857 1.08555 13.6145 1.0657 13.7456 1.06068L14.5654 1.03826C14.7435 1.02872 14.9166 1.00338 15.0966 1.00022C15.5049 0.993056 15.4516 1.1614 15.6728 1.462C15.8364 1.68424 16.0242 1.88569 16.2266 2.07268C16.437 2.26701 16.7265 2.45377 16.8714 2.70173C16.97 2.87037 17.3955 2.94926 17.5776 3.01022L18.6035 3.35977C19.0279 3.50105 19.4529 3.61611 19.8405 3.84883C20.7928 4.42055 21.6068 5.39669 21.8709 6.49375L21.9367 6.75639C22.0048 6.9755 22.0114 7.22715 22.0381 7.45441L22.6441 12.1148C22.6621 12.224 22.6665 12.3352 22.6868 12.4444L22.981 14.545C22.9872 14.6076 23.005 14.6654 23.0158 14.7269L23.8309 19.2669L24.3507 22.0129C24.4549 22.7365 23.5634 23.0494 23.0068 23.2426C22.2357 23.5103 21.3915 23.6437 20.5761 23.6355C20.2225 23.6319 19.7291 23.655 19.6483 23.1995C19.6394 23.1493 19.639 23.0749 19.6147 23.0317C18.591 23.6483 17.5806 23.8328 16.4203 23.8347L15.3471 23.8361ZM10.4913 1.69534C10.5595 1.88856 10.6741 2.07361 10.7724 2.25327C11.1669 2.9742 12.1351 4.53688 12.7715 5.09349C13.1245 4.70379 13.4219 4.29539 13.7098 3.85566L14.8892 1.70908L10.4913 1.69534ZM15.4234 2.19616C15.3153 2.37664 15.2304 2.57498 15.1383 2.76432L14.7348 3.52459C14.5201 3.89189 14.291 4.26612 14.0445 4.61358L13.44 5.43595C13.5915 5.56655 13.7709 5.64876 13.9496 5.73448L14.5194 5.99338L14.8297 6.12094C15.5166 5.46659 16.1058 4.01439 16.3529 3.09863L15.4234 2.19616ZM9.96338 2.22108C9.68146 2.53806 9.3819 2.84308 9.04722 3.10499C9.05629 3.14802 9.06607 3.18519 9.08208 3.2262L9.28102 3.86389C9.3409 4.08381 9.4668 4.29386 9.557 4.50171C9.79399 5.04769 10.1748 5.70057 10.6104 6.12121L11.0129 5.94009L12.0614 5.39273C12.0223 5.31566 11.9572 5.24674 11.9022 5.18011L10.9036 3.80978L10.337 2.85529C10.2172 2.63858 10.1143 2.41875 9.96338 2.22108ZM8.4441 3.51109L8.4277 3.52045C8.14272 3.68063 7.78331 3.74755 7.47389 3.85529L6.92279 4.04637C5.62951 4.46224 4.61569 5.21839 4.2153 6.59431C4.06343 7.11625 4.04152 7.64552 3.97341 8.18149L3.34052 12.9612L3.02949 15.0311L1.79332 21.7033C1.76009 21.8744 1.73622 22.0539 1.68671 22.2209C1.96771 22.5102 3.28995 22.8026 3.67201 22.868C3.89615 22.9063 4.85587 23.0168 5.06562 22.9458C5.16072 22.8076 5.15714 22.5695 5.1795 22.4075L5.42171 20.558L5.58157 18.5851L5.60222 17.6307C5.60549 17.5183 5.63206 17.4099 5.63457 17.2965L5.63489 12.5499C5.63193 12.4244 5.60375 12.2992 5.60135 12.1716L5.5904 10.8878C5.57875 10.6112 5.54199 10.3756 5.53996 10.0774L5.53714 9.309C5.53706 9.2025 5.51821 9.04865 5.5499 8.94848C5.66165 8.59532 6.17046 8.64684 6.19427 9.1204C6.19885 9.21197 6.20605 9.30399 6.20378 9.3957L6.21478 10.0394C6.21955 10.308 6.2625 10.5612 6.26588 10.8294L6.27176 11.8338C6.27529 11.9619 6.30258 12.0874 6.30575 12.216L6.30612 17.6009C6.30329 17.7338 6.27896 17.8628 6.27471 17.9947L6.1998 19.6395L5.88814 22.3078C5.8559 22.6242 7.6476 23.0144 7.93558 23.073C8.1842 23.1236 8.50561 23.1453 8.75929 23.1473L12.3457 23.1556L12.3462 6.48049C12.3462 6.34593 12.3619 6.18908 12.3381 6.05785L11.0295 6.68454C10.618 6.86408 10.5037 6.93577 10.1541 6.62353C9.6509 6.17402 9.22288 5.46018 8.94716 4.85724L8.4441 3.51109ZM16.9502 3.51252C16.7192 4.27809 15.833 6.50459 14.9977 6.81793L14.9807 6.82463C14.781 6.8983 14.6391 6.77058 14.4692 6.69369L13.152 6.10351C13.1211 6.08801 13.0755 6.05426 13.0425 6.05039L13.0473 23.1485L15.4646 23.1479C15.9109 23.1477 16.3681 23.1698 16.813 23.1428C17.567 23.097 18.2338 22.9354 18.9255 22.6264C19.1275 22.5361 19.3692 22.4375 19.5298 22.2821L19.1131 17.6009C19.0786 17.3759 19.0974 17.1229 19.0973 16.8948L19.1006 12.7806C19.1039 12.6896 19.1287 12.599 19.1329 12.5068L19.1406 11.0669L19.19 9.48284C19.1923 9.2261 19.1379 8.79023 19.4869 8.7276C19.871 8.65868 19.8691 8.98126 19.8669 9.23923L19.859 11.2081C19.8548 11.3103 19.8321 11.4103 19.8268 11.512L19.7747 12.9775L19.7745 16.6813C19.7764 16.7834 19.795 16.8835 19.7971 16.9855L19.8281 18.5192L20.1399 21.785L20.2191 22.286C20.2488 22.5097 20.2533 22.7402 20.2883 22.9626C21.2718 23.0247 22.9472 22.7356 23.6833 22.1269L22.3174 14.6761L21.4182 7.90925C21.271 6.5044 20.9788 5.51803 19.7728 4.61517C19.3438 4.29407 18.8712 4.14857 18.3683 3.98736L17.1414 3.57656C17.0787 3.55647 17.0149 3.52409 16.9502 3.51252Z" fill="currentColor" stroke="currentColor" stroke-width="0.75"/>
</svg>
