<svg width="22" height="23" viewBox="0 0 22 23" fill="none" xmlns="http://www.w3.org/2000/svg">
<path d="M20.6283 11.6268C20.4657 11.6282 20.3089 11.5664 20.191 11.4544L19.793 11.0564L18.5127 9.77609V11.5868V20.6564C18.5127 20.8228 18.4466 20.9823 18.329 21.0999C18.2114 21.2175 18.0519 21.2835 17.8856 21.2835H15.1313C14.965 21.2835 14.8055 21.2175 14.6879 21.0999C14.5703 20.9823 14.5042 20.8228 14.5042 20.6564V17.9022C14.5042 17.3381 14.2801 16.797 13.8812 16.3981C13.4823 15.9992 12.9413 15.7751 12.3771 15.7751H9.62288C9.05874 15.7751 8.5177 15.9992 8.11879 16.3981C7.71988 16.797 7.49577 17.3381 7.49577 17.9022V20.6564C7.49577 20.8228 7.4297 20.9823 7.31209 21.0999C7.19449 21.2175 7.03498 21.2835 6.86865 21.2835H4.11442C3.9481 21.2835 3.78859 21.2175 3.67099 21.0999C3.55338 20.9823 3.48731 20.8228 3.48731 20.6564V11.5868V9.77609L2.20698 11.0564L1.80899 11.4544C1.69113 11.5664 1.53434 11.6282 1.37167 11.6268C1.20724 11.6254 1.04995 11.5594 0.933678 11.4431C0.817406 11.3269 0.751453 11.1696 0.750024 11.0052C0.74861 10.8425 0.810467 10.6857 0.922411 10.5678L10.5566 0.933611C10.5567 0.933584 10.5567 0.933557 10.5567 0.933531C10.6743 0.816015 10.8337 0.75 11 0.75C11.1663 0.75 11.3257 0.816016 11.4433 0.933531C11.4433 0.933557 11.4433 0.933583 11.4434 0.93361L21.0776 10.5679C21.1895 10.6857 21.2514 10.8425 21.25 11.0052C21.2485 11.1696 21.1826 11.3269 21.0663 11.4431C20.9501 11.5594 20.7928 11.6254 20.6283 11.6268Z" stroke="black" stroke-width="1.5"/>
</svg>
