<svg width="21" height="24" viewBox="0 0 21 24" fill="none" xmlns="http://www.w3.org/2000/svg">
<path d="M14.0625 18.1111H20L18.3316 16.3939C18.1075 16.1632 17.9298 15.8894 17.8086 15.5881C17.6873 15.2867 17.625 14.9637 17.625 14.6376V10.7778C17.6252 9.26092 17.1685 7.78131 16.3178 6.54264C15.4672 5.30398 14.2644 4.36718 12.875 3.86122V3.44444C12.875 2.79614 12.6248 2.17438 12.1794 1.71596C11.734 1.25754 11.1299 1 10.5 1C9.87011 1 9.26602 1.25754 8.82062 1.71596C8.37522 2.17438 8.125 2.79614 8.125 3.44444V3.86122C5.35813 4.86833 3.375 7.58533 3.375 10.7778V14.6388C3.375 15.2963 3.12088 15.9282 2.66844 16.3939L1 18.1111H6.9375M14.0625 18.1111V19.3333C14.0625 20.3058 13.6872 21.2384 13.0191 21.9261C12.351 22.6137 11.4448 23 10.5 23C9.55517 23 8.64903 22.6137 7.98093 21.9261C7.31283 21.2384 6.9375 20.3058 6.9375 19.3333V18.1111M14.0625 18.1111H6.9375" stroke="black" stroke-width="1.5" stroke-linecap="round" stroke-linejoin="round"/>
</svg>
