<svg width="27" height="24" viewBox="0 0 27 24" fill="none" xmlns="http://www.w3.org/2000/svg">
<path d="M1 7.94444C1 7.20773 1.29266 6.50119 1.81359 5.98026C2.33453 5.45932 3.04107 5.16667 3.77778 5.16667H5.06944C5.52664 5.16673 5.97679 5.05395 6.37995 4.83832C6.78311 4.62269 7.12681 4.31088 7.38056 3.93056L8.50833 2.23611C8.76208 1.85579 9.10578 1.54398 9.50894 1.32835C9.91209 1.11272 10.3622 0.999932 10.8194 1H16.1806C16.6378 0.999932 17.0879 1.11272 17.4911 1.32835C17.8942 1.54398 18.2379 1.85579 18.4917 2.23611L19.6194 3.93056C19.8732 4.31088 20.2169 4.62269 20.62 4.83832C21.0232 5.05395 21.4734 5.16673 21.9306 5.16667H23.2222C23.9589 5.16667 24.6655 5.45932 25.1864 5.98026C25.7073 6.50119 26 7.20773 26 7.94444V20.4444C26 21.1812 25.7073 21.8877 25.1864 22.4086C24.6655 22.9296 23.9589 23.2222 23.2222 23.2222H3.77778C3.04107 23.2222 2.33453 22.9296 1.81359 22.4086C1.29266 21.8877 1 21.1812 1 20.4444V7.94444Z" stroke="white" stroke-width="1.5" stroke-linecap="round" stroke-linejoin="round"/>
<path d="M17.6668 13.5C17.6668 14.605 17.2278 15.6649 16.4464 16.4463C15.665 17.2277 14.6052 17.6666 13.5002 17.6666C12.3951 17.6666 11.3353 17.2277 10.5539 16.4463C9.77248 15.6649 9.3335 14.605 9.3335 13.5C9.3335 12.3949 9.77248 11.3351 10.5539 10.5537C11.3353 9.7723 12.3951 9.33331 13.5002 9.33331C14.6052 9.33331 15.665 9.7723 16.4464 10.5537C17.2278 11.3351 17.6668 12.3949 17.6668 13.5Z" stroke="white" stroke-width="1.5" stroke-linecap="round" stroke-linejoin="round"/>
</svg>
