<svg width="12" height="13" viewBox="0 0 12 13" fill="none" xmlns="http://www.w3.org/2000/svg">
<path fill-rule="evenodd" clip-rule="evenodd" d="M6.34511 12.1849L6.33789 12.1861L6.29521 12.2072L6.28318 12.2096L6.27477 12.2072L6.23208 12.1855C6.22567 12.1839 6.22086 12.1851 6.21765 12.1891L6.21525 12.1951L6.20503 12.4525L6.20804 12.4645L6.21405 12.4723L6.27657 12.5168L6.28559 12.5192L6.2928 12.5168L6.35533 12.4723L6.36254 12.4627L6.36494 12.4525L6.35472 12.1957C6.35312 12.1893 6.34991 12.1857 6.34511 12.1849ZM6.50382 12.117L6.4954 12.1182L6.38478 12.1741L6.37877 12.1801L6.37697 12.1867L6.38779 12.4452L6.3908 12.4525L6.39561 12.4573L6.51644 12.5126C6.52406 12.5146 6.52987 12.513 6.53388 12.5078L6.53628 12.4993L6.51584 12.1302C6.51384 12.1226 6.50983 12.1182 6.50382 12.117ZM6.07397 12.1182C6.07132 12.1166 6.06815 12.1161 6.06513 12.1167C6.06211 12.1174 6.05946 12.1192 6.05774 12.1218L6.05413 12.1302L6.03369 12.4993C6.03409 12.5066 6.0375 12.5114 6.04391 12.5138L6.05293 12.5126L6.17377 12.4567L6.17978 12.4519L6.18158 12.4452L6.1924 12.1867L6.1906 12.1795L6.18459 12.1735L6.07397 12.1182Z" fill="#7AB2B2"/>
<path fill-rule="evenodd" clip-rule="evenodd" d="M6.34511 12.1849L6.33789 12.1861L6.29521 12.2072L6.28318 12.2096L6.27477 12.2072L6.23208 12.1855C6.22567 12.1839 6.22086 12.1851 6.21765 12.1891L6.21525 12.1951L6.20503 12.4525L6.20804 12.4645L6.21405 12.4723L6.27657 12.5168L6.28559 12.5192L6.2928 12.5168L6.35533 12.4723L6.36254 12.4627L6.36494 12.4525L6.35472 12.1957C6.35312 12.1893 6.34991 12.1857 6.34511 12.1849ZM6.50382 12.117L6.4954 12.1182L6.38478 12.1741L6.37877 12.1801L6.37697 12.1867L6.38779 12.4452L6.3908 12.4525L6.39561 12.4573L6.51644 12.5126C6.52406 12.5146 6.52987 12.513 6.53388 12.5078L6.53628 12.4993L6.51584 12.1302C6.51384 12.1226 6.50983 12.1182 6.50382 12.117ZM6.07397 12.1182C6.07132 12.1166 6.06815 12.1161 6.06513 12.1167C6.06211 12.1174 6.05946 12.1192 6.05774 12.1218L6.05413 12.1302L6.03369 12.4993C6.03409 12.5066 6.0375 12.5114 6.04391 12.5138L6.05293 12.5126L6.17377 12.4567L6.17978 12.4519L6.18158 12.4452L6.1924 12.1867L6.1906 12.1795L6.18459 12.1735L6.07397 12.1182Z" fill="#7AB2B2"/>
<path fill-rule="evenodd" clip-rule="evenodd" d="M6.34511 12.1849L6.33789 12.1861L6.29521 12.2072L6.28318 12.2096L6.27477 12.2072L6.23208 12.1855C6.22567 12.1839 6.22086 12.1851 6.21765 12.1891L6.21525 12.1951L6.20503 12.4525L6.20804 12.4645L6.21405 12.4723L6.27657 12.5168L6.28559 12.5192L6.2928 12.5168L6.35533 12.4723L6.36254 12.4627L6.36494 12.4525L6.35472 12.1957C6.35312 12.1893 6.34991 12.1857 6.34511 12.1849ZM6.50382 12.117L6.4954 12.1182L6.38478 12.1741L6.37877 12.1801L6.37697 12.1867L6.38779 12.4452L6.3908 12.4525L6.39561 12.4573L6.51644 12.5126C6.52406 12.5146 6.52987 12.513 6.53388 12.5078L6.53628 12.4993L6.51584 12.1302C6.51384 12.1226 6.50983 12.1182 6.50382 12.117ZM6.07397 12.1182C6.07132 12.1166 6.06815 12.1161 6.06513 12.1167C6.06211 12.1174 6.05946 12.1192 6.05774 12.1218L6.05413 12.1302L6.03369 12.4993C6.03409 12.5066 6.0375 12.5114 6.04391 12.5138L6.05293 12.5126L6.17377 12.4567L6.17978 12.4519L6.18158 12.4452L6.1924 12.1867L6.1906 12.1795L6.18459 12.1735L6.07397 12.1182Z" fill="#7AB2B2"/>
<path fill-rule="evenodd" clip-rule="evenodd" d="M6.34511 12.1849L6.33789 12.1861L6.29521 12.2072L6.28318 12.2096L6.27477 12.2072L6.23208 12.1855C6.22567 12.1839 6.22086 12.1851 6.21765 12.1891L6.21525 12.1951L6.20503 12.4525L6.20804 12.4645L6.21405 12.4723L6.27657 12.5168L6.28559 12.5192L6.2928 12.5168L6.35533 12.4723L6.36254 12.4627L6.36494 12.4525L6.35472 12.1957C6.35312 12.1893 6.34991 12.1857 6.34511 12.1849ZM6.50382 12.117L6.4954 12.1182L6.38478 12.1741L6.37877 12.1801L6.37697 12.1867L6.38779 12.4452L6.3908 12.4525L6.39561 12.4573L6.51644 12.5126C6.52406 12.5146 6.52987 12.513 6.53388 12.5078L6.53628 12.4993L6.51584 12.1302C6.51384 12.1226 6.50983 12.1182 6.50382 12.117ZM6.07397 12.1182C6.07132 12.1166 6.06815 12.1161 6.06513 12.1167C6.06211 12.1174 6.05946 12.1192 6.05774 12.1218L6.05413 12.1302L6.03369 12.4993C6.03409 12.5066 6.0375 12.5114 6.04391 12.5138L6.05293 12.5126L6.17377 12.4567L6.17978 12.4519L6.18158 12.4452L6.1924 12.1867L6.1906 12.1795L6.18459 12.1735L6.07397 12.1182Z" fill="#7AB2B2"/>
<path fill-rule="evenodd" clip-rule="evenodd" d="M10.4939 0.0860245C10.6271 0.00589207 10.7862 -0.0195228 10.9378 0.0151138C11.0893 0.0497504 11.2215 0.141746 11.3067 0.271791L11.9019 1.17958C11.9795 1.29817 12.0127 1.44036 11.9956 1.58105C11.9786 1.72173 11.9124 1.85187 11.8087 1.9485L11.8069 1.9509L11.7985 1.95872L11.7642 1.99058L11.629 2.11984C10.8805 2.84587 10.1547 3.5949 9.45266 4.36587C8.13186 5.81833 6.56336 7.71928 5.50768 9.56372C5.2131 10.0783 4.49348 10.189 4.06664 9.74468L0.167949 5.69389C0.112078 5.63581 0.0684522 5.5671 0.0396655 5.49183C0.0108788 5.41656 -0.00248141 5.33628 0.000378814 5.25574C0.00323904 5.17521 0.0222613 5.09607 0.0563152 5.02303C0.090369 4.94999 0.138759 4.88455 0.198609 4.83058L1.37693 3.76769C1.48048 3.67433 1.61326 3.61986 1.75254 3.61361C1.89182 3.60736 2.02894 3.64971 2.14044 3.73342L4.12976 5.22496C7.23729 2.16072 8.99937 0.984798 10.4939 0.0860245ZM10.6202 1.41825C9.24345 2.27915 7.52526 3.52781 4.60951 6.44297C4.50719 6.54529 4.3714 6.60727 4.22707 6.61754C4.08273 6.62781 3.93953 6.58568 3.82376 6.49888L1.8146 4.9923L1.46531 5.30732L4.66181 8.62948C5.7716 6.78384 7.29922 4.94661 8.56351 3.55667C9.2293 2.82532 9.91593 2.11322 10.6226 1.42126L10.6202 1.41825Z" fill="#7AB2B2"/>
<path fill-rule="evenodd" clip-rule="evenodd" d="M10.4939 0.0860245C10.6271 0.00589207 10.7862 -0.0195228 10.9378 0.0151138C11.0893 0.0497504 11.2215 0.141746 11.3067 0.271791L11.9019 1.17958C11.9795 1.29817 12.0127 1.44036 11.9956 1.58105C11.9786 1.72173 11.9124 1.85187 11.8087 1.9485L11.8069 1.9509L11.7985 1.95872L11.7642 1.99058L11.629 2.11984C10.8805 2.84587 10.1547 3.5949 9.45266 4.36587C8.13186 5.81833 6.56336 7.71928 5.50768 9.56372C5.2131 10.0783 4.49348 10.189 4.06664 9.74468L0.167949 5.69389C0.112078 5.63581 0.0684522 5.5671 0.0396655 5.49183C0.0108788 5.41656 -0.00248141 5.33628 0.000378814 5.25574C0.00323904 5.17521 0.0222613 5.09607 0.0563152 5.02303C0.090369 4.94999 0.138759 4.88455 0.198609 4.83058L1.37693 3.76769C1.48048 3.67433 1.61326 3.61986 1.75254 3.61361C1.89182 3.60736 2.02894 3.64971 2.14044 3.73342L4.12976 5.22496C7.23729 2.16072 8.99937 0.984798 10.4939 0.0860245ZM10.6202 1.41825C9.24345 2.27915 7.52526 3.52781 4.60951 6.44297C4.50719 6.54529 4.3714 6.60727 4.22707 6.61754C4.08273 6.62781 3.93953 6.58568 3.82376 6.49888L1.8146 4.9923L1.46531 5.30732L4.66181 8.62948C5.7716 6.78384 7.29922 4.94661 8.56351 3.55667C9.2293 2.82532 9.91593 2.11322 10.6226 1.42126L10.6202 1.41825Z" fill="#7AB2B2"/>
<path fill-rule="evenodd" clip-rule="evenodd" d="M10.4939 0.0860245C10.6271 0.00589207 10.7862 -0.0195228 10.9378 0.0151138C11.0893 0.0497504 11.2215 0.141746 11.3067 0.271791L11.9019 1.17958C11.9795 1.29817 12.0127 1.44036 11.9956 1.58105C11.9786 1.72173 11.9124 1.85187 11.8087 1.9485L11.8069 1.9509L11.7985 1.95872L11.7642 1.99058L11.629 2.11984C10.8805 2.84587 10.1547 3.5949 9.45266 4.36587C8.13186 5.81833 6.56336 7.71928 5.50768 9.56372C5.2131 10.0783 4.49348 10.189 4.06664 9.74468L0.167949 5.69389C0.112078 5.63581 0.0684522 5.5671 0.0396655 5.49183C0.0108788 5.41656 -0.00248141 5.33628 0.000378814 5.25574C0.00323904 5.17521 0.0222613 5.09607 0.0563152 5.02303C0.090369 4.94999 0.138759 4.88455 0.198609 4.83058L1.37693 3.76769C1.48048 3.67433 1.61326 3.61986 1.75254 3.61361C1.89182 3.60736 2.02894 3.64971 2.14044 3.73342L4.12976 5.22496C7.23729 2.16072 8.99937 0.984798 10.4939 0.0860245ZM10.6202 1.41825C9.24345 2.27915 7.52526 3.52781 4.60951 6.44297C4.50719 6.54529 4.3714 6.60727 4.22707 6.61754C4.08273 6.62781 3.93953 6.58568 3.82376 6.49888L1.8146 4.9923L1.46531 5.30732L4.66181 8.62948C5.7716 6.78384 7.29922 4.94661 8.56351 3.55667C9.2293 2.82532 9.91593 2.11322 10.6226 1.42126L10.6202 1.41825Z" fill="#7AB2B2"/>
<path fill-rule="evenodd" clip-rule="evenodd" d="M10.4939 0.0860245C10.6271 0.00589207 10.7862 -0.0195228 10.9378 0.0151138C11.0893 0.0497504 11.2215 0.141746 11.3067 0.271791L11.9019 1.17958C11.9795 1.29817 12.0127 1.44036 11.9956 1.58105C11.9786 1.72173 11.9124 1.85187 11.8087 1.9485L11.8069 1.9509L11.7985 1.95872L11.7642 1.99058L11.629 2.11984C10.8805 2.84587 10.1547 3.5949 9.45266 4.36587C8.13186 5.81833 6.56336 7.71928 5.50768 9.56372C5.2131 10.0783 4.49348 10.189 4.06664 9.74468L0.167949 5.69389C0.112078 5.63581 0.0684522 5.5671 0.0396655 5.49183C0.0108788 5.41656 -0.00248141 5.33628 0.000378814 5.25574C0.00323904 5.17521 0.0222613 5.09607 0.0563152 5.02303C0.090369 4.94999 0.138759 4.88455 0.198609 4.83058L1.37693 3.76769C1.48048 3.67433 1.61326 3.61986 1.75254 3.61361C1.89182 3.60736 2.02894 3.64971 2.14044 3.73342L4.12976 5.22496C7.23729 2.16072 8.99937 0.984798 10.4939 0.0860245ZM10.6202 1.41825C9.24345 2.27915 7.52526 3.52781 4.60951 6.44297C4.50719 6.54529 4.3714 6.60727 4.22707 6.61754C4.08273 6.62781 3.93953 6.58568 3.82376 6.49888L1.8146 4.9923L1.46531 5.30732L4.66181 8.62948C5.7716 6.78384 7.29922 4.94661 8.56351 3.55667C9.2293 2.82532 9.91593 2.11322 10.6226 1.42126L10.6202 1.41825Z" fill="#7AB2B2"/>
</svg>
