<svg width="259" height="185" viewBox="0 0 259 185" fill="none" xmlns="http://www.w3.org/2000/svg">
<circle cx="213" cy="10" r="10" fill="#7AB2B2" fill-opacity="0.32"/>
<circle cx="213" cy="10" r="6" fill="#7AB2B2" fill-opacity="0.32"/>
<circle cx="239" cy="150" r="20" fill="#7AB2B2" fill-opacity="0.32"/>
<circle cx="239" cy="150" r="12" fill="#7AB2B2" fill-opacity="0.32"/>
<circle cx="15" cy="95" r="15" fill="#7AB2B2" fill-opacity="0.32"/>
<circle cx="15" cy="95" r="9" fill="#7AB2B2" fill-opacity="0.32"/>
<circle cx="128" cy="95" r="90" fill="#7AB2B2" fill-opacity="0.32"/>
<circle cx="128" cy="95" r="75" fill="#7AB2B2" fill-opacity="0.32"/>
<path d="M128 48C114.542 48 103.5 59.0425 103.5 72.5V82.5625C100.178 85.8108 97.5376 89.6898 95.7345 93.9721C93.9315 98.2544 93.0018 102.854 93 107.5C93 126.785 108.715 142.5 128 142.5C147.285 142.5 163 126.785 163 107.5C162.998 102.854 162.069 98.2544 160.265 93.9721C158.462 89.6898 155.822 85.8108 152.5 82.5625V72.5C152.5 59.0425 141.458 48 128 48ZM128 55C137.643 55 145.5 62.8575 145.5 72.5V77.3125C140.337 74.3025 134.391 72.5 128 72.5C121.609 72.5 115.663 74.306 110.5 77.3125V72.5C110.5 62.8575 118.357 55 128 55ZM128 79.5C143.505 79.5 156 91.995 156 107.5C156 123.005 143.505 135.5 128 135.5C112.495 135.5 100 123.005 100 107.5C100 91.995 112.495 79.5 128 79.5ZM128 100.5C126.143 100.5 124.363 101.237 123.05 102.55C121.737 103.863 121 105.643 121 107.5C121 110.09 122.41 112.305 124.5 113.52V125H131.5V113.52C133.59 112.305 135 110.09 135 107.5C135 105.643 134.263 103.863 132.95 102.55C131.637 101.237 129.857 100.5 128 100.5Z" fill="#369393"/>
</svg>
