<svg width="22" height="25" viewBox="0 0 22 25" fill="none" xmlns="http://www.w3.org/2000/svg">
<path d="M1 6H21M8.5 11V18.5M13.5 11V18.5M2.25 6L3.5 21C3.5 21.663 3.76339 22.2989 4.23223 22.7678C4.70107 23.2366 5.33696 23.5 6 23.5H16C16.663 23.5 17.2989 23.2366 17.7678 22.7678C18.2366 22.2989 18.5 21.663 18.5 21L19.75 6M7.25 6V2.25C7.25 1.91848 7.3817 1.60054 7.61612 1.36612C7.85054 1.1317 8.16848 1 8.5 1H13.5C13.8315 1 14.1495 1.1317 14.3839 1.36612C14.6183 1.60054 14.75 1.91848 14.75 2.25V6" stroke="currentColor" stroke-width="1.5" stroke-linecap="round" stroke-linejoin="round"/>
</svg>
