<svg width="32" height="32" viewBox="0 0 32 32" fill="none" xmlns="http://www.w3.org/2000/svg">
<circle cx="16" cy="16" r="16" fill="#7AB2B2"/>
<path d="M7.22559 8.25784C7.22559 7.98407 7.33434 7.72151 7.52793 7.52793C7.72151 7.33434 7.98407 7.22559 8.25784 7.22559H24.774C25.0477 7.22559 25.3103 7.33434 25.5039 7.52793C25.6975 7.72151 25.8062 7.98407 25.8062 8.25784V10.9273C25.8062 11.201 25.6974 11.4635 25.5038 11.6571L18.8829 18.278C18.6893 18.4715 18.5805 18.734 18.5804 19.0078V21.6772L14.4514 25.8062V19.0078C14.4513 18.734 14.3425 18.4715 14.1489 18.278L7.52804 11.6571C7.33444 11.4635 7.22564 11.201 7.22559 10.9273V8.25784Z" stroke="white" stroke-width="1.5" stroke-linecap="round" stroke-linejoin="round"/>
</svg>
