<svg xmlns="http://www.w3.org/2000/svg" xmlns:xlink="http://www.w3.org/1999/xlink" width="192" zoomAndPan="magnify" viewBox="0 0 144 143.999998" height="192" preserveAspectRatio="xMidYMid meet" version="1.0"><defs><filter x="0%" y="0%" width="100%" height="100%" id="801f20a6ed"><feColorMatrix values="0 0 0 0 1 0 0 0 0 1 0 0 0 0 1 0 0 0 1 0" color-interpolation-filters="sRGB"/></filter><mask id="986a574a03"><g filter="url(#801f20a6ed)"><rect x="-14.4" width="172.8" fill="#000000" y="-14.4" height="172.799997" fill-opacity="0.32"/></g></mask><clipPath id="d1a5c138e3"><path d="M 0.34375 0.796875 L 102.941406 0.796875 L 102.941406 103.398438 L 0.34375 103.398438 Z M 0.34375 0.796875 " clip-rule="nonzero"/></clipPath><clipPath id="c9ed0ea6ca"><path d="M 51.644531 0.796875 C 23.3125 0.796875 0.34375 23.765625 0.34375 52.097656 C 0.34375 80.429688 23.3125 103.398438 51.644531 103.398438 C 79.976562 103.398438 102.941406 80.429688 102.941406 52.097656 C 102.941406 23.765625 79.976562 0.796875 51.644531 0.796875 Z M 51.644531 0.796875 " clip-rule="nonzero"/></clipPath><clipPath id="2fe60b5f70"><rect x="0" width="104" y="0" height="104"/></clipPath><mask id="b2a41e65fd"><g filter="url(#801f20a6ed)"><rect x="-14.4" width="172.8" fill="#000000" y="-14.4" height="172.799997" fill-opacity="0.32"/></g></mask><clipPath id="7b091159d7"><path d="M 0.429688 0.882812 L 84.859375 0.882812 L 84.859375 85.3125 L 0.429688 85.3125 Z M 0.429688 0.882812 " clip-rule="nonzero"/></clipPath><clipPath id="73b9ea6708"><path d="M 42.644531 0.882812 C 19.328125 0.882812 0.429688 19.78125 0.429688 43.097656 C 0.429688 66.414062 19.328125 85.3125 42.644531 85.3125 C 65.957031 85.3125 84.859375 66.414062 84.859375 43.097656 C 84.859375 19.78125 65.957031 0.882812 42.644531 0.882812 Z M 42.644531 0.882812 " clip-rule="nonzero"/></clipPath><clipPath id="081f829c6a"><rect x="0" width="86" y="0" height="86"/></clipPath><mask id="2f130231b0"><g filter="url(#801f20a6ed)"><rect x="-14.4" width="172.8" fill="#000000" y="-14.4" height="172.799997" fill-opacity="0.87"/></g></mask><clipPath id="2f5e5463b1"><path d="M 5 1.125 L 28 1.125 L 28 27 L 5 27 Z M 5 1.125 " clip-rule="nonzero"/></clipPath><clipPath id="5467522d99"><path d="M 0.679688 1.125 L 43.160156 1.125 L 43.160156 61.078125 L 0.679688 61.078125 Z M 0.679688 1.125 " clip-rule="nonzero"/></clipPath><clipPath id="a1c40b0374"><rect x="0" width="44" y="0" height="62"/></clipPath><mask id="ae5082136d"><g filter="url(#801f20a6ed)"><rect x="-14.4" width="172.8" fill="#000000" y="-14.4" height="172.799997" fill-opacity="0.32"/></g></mask><clipPath id="aa83ff8e59"><path d="M 0.660156 0.175781 L 13.90625 0.175781 L 13.90625 13.421875 L 0.660156 13.421875 Z M 0.660156 0.175781 " clip-rule="nonzero"/></clipPath><clipPath id="0a5c48feb6"><path d="M 7.285156 0.175781 C 3.625 0.175781 0.660156 3.140625 0.660156 6.796875 C 0.660156 10.457031 3.625 13.421875 7.285156 13.421875 C 10.941406 13.421875 13.90625 10.457031 13.90625 6.796875 C 13.90625 3.140625 10.941406 0.175781 7.285156 0.175781 Z M 7.285156 0.175781 " clip-rule="nonzero"/></clipPath><clipPath id="748ca7252f"><rect x="0" width="14" y="0" height="14"/></clipPath><mask id="86a9edf6e0"><g filter="url(#801f20a6ed)"><rect x="-14.4" width="172.8" fill="#000000" y="-14.4" height="172.799997" fill-opacity="0.32"/></g></mask><clipPath id="4ad2debf86"><path d="M 0.886719 0.398438 L 9.683594 0.398438 L 9.683594 9.195312 L 0.886719 9.195312 Z M 0.886719 0.398438 " clip-rule="nonzero"/></clipPath><clipPath id="36773eacc4"><path d="M 5.285156 0.398438 C 2.855469 0.398438 0.886719 2.371094 0.886719 4.796875 C 0.886719 7.226562 2.855469 9.195312 5.285156 9.195312 C 7.714844 9.195312 9.683594 7.226562 9.683594 4.796875 C 9.683594 2.371094 7.714844 0.398438 5.285156 0.398438 Z M 5.285156 0.398438 " clip-rule="nonzero"/></clipPath><clipPath id="8a387c1044"><rect x="0" width="10" y="0" height="10"/></clipPath><mask id="2dd13060c8"><g filter="url(#801f20a6ed)"><rect x="-14.4" width="172.8" fill="#000000" y="-14.4" height="172.799997" fill-opacity="0.32"/></g></mask><clipPath id="e4a5e904a8"><path d="M 0.25 0.332031 L 17.695312 0.332031 L 17.695312 17.777344 L 0.25 17.777344 Z M 0.25 0.332031 " clip-rule="nonzero"/></clipPath><clipPath id="a04d642bf0"><path d="M 8.972656 0.332031 C 4.15625 0.332031 0.25 4.238281 0.25 9.054688 C 0.25 13.871094 4.15625 17.777344 8.972656 17.777344 C 13.789062 17.777344 17.695312 13.871094 17.695312 9.054688 C 17.695312 4.238281 13.789062 0.332031 8.972656 0.332031 Z M 8.972656 0.332031 " clip-rule="nonzero"/></clipPath><clipPath id="238f12d0c5"><rect x="0" width="18" y="0" height="18"/></clipPath><mask id="be8c7fdd26"><g filter="url(#801f20a6ed)"><rect x="-14.4" width="172.8" fill="#000000" y="-14.4" height="172.799997" fill-opacity="0.32"/></g></mask><clipPath id="60bee8c2c2"><path d="M 1.179688 0.261719 L 12.765625 0.261719 L 12.765625 11.847656 L 1.179688 11.847656 Z M 1.179688 0.261719 " clip-rule="nonzero"/></clipPath><clipPath id="661baa1e9b"><path d="M 6.972656 0.261719 C 3.773438 0.261719 1.179688 2.855469 1.179688 6.054688 C 1.179688 9.253906 3.773438 11.847656 6.972656 11.847656 C 10.171875 11.847656 12.765625 9.253906 12.765625 6.054688 C 12.765625 2.855469 10.171875 0.261719 6.972656 0.261719 Z M 6.972656 0.261719 " clip-rule="nonzero"/></clipPath><clipPath id="bc4b433b17"><rect x="0" width="13" y="0" height="12"/></clipPath><mask id="58ffdbc5f1"><g filter="url(#801f20a6ed)"><rect x="-14.4" width="172.8" fill="#000000" y="-14.4" height="172.799997" fill-opacity="0.32"/></g></mask><clipPath id="6916903204"><path d="M 0.304688 0.375 L 17.75 0.375 L 17.75 17.820312 L 0.304688 17.820312 Z M 0.304688 0.375 " clip-rule="nonzero"/></clipPath><clipPath id="2895265682"><path d="M 9.027344 0.375 C 4.210938 0.375 0.304688 4.28125 0.304688 9.097656 C 0.304688 13.914062 4.210938 17.820312 9.027344 17.820312 C 13.84375 17.820312 17.75 13.914062 17.75 9.097656 C 17.75 4.28125 13.84375 0.375 9.027344 0.375 Z M 9.027344 0.375 " clip-rule="nonzero"/></clipPath><clipPath id="630304e9f5"><rect x="0" width="18" y="0" height="18"/></clipPath><mask id="95d70af78b"><g filter="url(#801f20a6ed)"><rect x="-14.4" width="172.8" fill="#000000" y="-14.4" height="172.799997" fill-opacity="0.32"/></g></mask><clipPath id="52bf08e9e4"><path d="M 0.234375 0.304688 L 11.820312 0.304688 L 11.820312 11.890625 L 0.234375 11.890625 Z M 0.234375 0.304688 " clip-rule="nonzero"/></clipPath><clipPath id="954bcc015f"><path d="M 6.027344 0.304688 C 2.828125 0.304688 0.234375 2.898438 0.234375 6.097656 C 0.234375 9.296875 2.828125 11.890625 6.027344 11.890625 C 9.226562 11.890625 11.820312 9.296875 11.820312 6.097656 C 11.820312 2.898438 9.226562 0.304688 6.027344 0.304688 Z M 6.027344 0.304688 " clip-rule="nonzero"/></clipPath><clipPath id="11e6db392f"><rect x="0" width="13" y="0" height="13"/></clipPath></defs><rect x="-14.4" width="172.8" fill="#ffffff" y="-14.4" height="172.799997" fill-opacity="1"/><rect x="-14.4" width="172.8" fill="#ffffff" y="-14.4" height="172.799997" fill-opacity="1"/><g mask="url(#986a574a03)"><g transform="matrix(1, 0, 0, 1, 25, 18)"><g clip-path="url(#2fe60b5f70)"><g clip-path="url(#d1a5c138e3)"><g clip-path="url(#c9ed0ea6ca)"><path fill="#7ab2b2" d="M 0.34375 0.796875 L 102.941406 0.796875 L 102.941406 103.398438 L 0.34375 103.398438 Z M 0.34375 0.796875 " fill-opacity="1" fill-rule="nonzero"/></g></g></g></g></g><g mask="url(#b2a41e65fd)"><g transform="matrix(1, 0, 0, 1, 34, 27)"><g clip-path="url(#081f829c6a)"><g clip-path="url(#7b091159d7)"><g clip-path="url(#73b9ea6708)"><path fill="#7ab2b2" d="M 0.429688 0.882812 L 84.859375 0.882812 L 84.859375 85.3125 L 0.429688 85.3125 Z M 0.429688 0.882812 " fill-opacity="1" fill-rule="nonzero"/></g></g></g></g></g><g mask="url(#2f130231b0)"><g transform="matrix(1, 0, 0, 1, 55, 39)"><g clip-path="url(#a1c40b0374)"><path fill="#7ab2b2" d="M 38.78125 26.269531 L 37.644531 26.269531 L 37.644531 18.085938 C 37.644531 17.054688 37.542969 16.035156 37.34375 15.023438 C 37.140625 14.015625 36.84375 13.035156 36.449219 12.082031 C 36.054688 11.132812 35.574219 10.226562 35 9.371094 C 34.429688 8.515625 33.777344 7.722656 33.050781 6.992188 C 32.320312 6.265625 31.53125 5.617188 30.671875 5.042969 C 29.816406 4.472656 28.914062 3.988281 27.960938 3.59375 C 27.007812 3.199219 26.027344 2.902344 25.019531 2.699219 C 24.007812 2.5 22.988281 2.398438 21.957031 2.398438 C 20.929688 2.398438 19.910156 2.5 18.898438 2.699219 C 17.886719 2.902344 16.90625 3.199219 15.957031 3.59375 C 15.003906 3.988281 14.101562 4.472656 13.242188 5.042969 C 12.386719 5.617188 11.59375 6.265625 10.867188 6.992188 C 10.140625 7.722656 9.488281 8.515625 8.917969 9.371094 C 8.34375 10.226562 7.859375 11.132812 7.46875 12.082031 C 7.074219 13.035156 6.773438 14.015625 6.574219 15.023438 C 6.375 16.035156 6.273438 17.054688 6.273438 18.085938 L 6.273438 26.269531 L 5.136719 26.269531 C 4.652344 26.269531 4.191406 26.363281 3.746094 26.546875 C 3.296875 26.730469 2.90625 26.992188 2.5625 27.335938 C 2.222656 27.675781 1.960938 28.070312 1.777344 28.515625 C 1.589844 28.960938 1.5 29.425781 1.5 29.90625 L 1.5 56.730469 C 1.5 57.214844 1.589844 57.675781 1.777344 58.125 C 1.960938 58.570312 2.222656 58.960938 2.5625 59.304688 C 2.90625 59.644531 3.296875 59.90625 3.746094 60.089844 C 4.191406 60.277344 4.652344 60.367188 5.136719 60.367188 L 38.78125 60.367188 C 39.261719 60.367188 39.726562 60.277344 40.171875 60.089844 C 40.617188 59.90625 41.011719 59.644531 41.351562 59.304688 C 41.695312 58.960938 41.957031 58.570312 42.140625 58.125 C 42.324219 57.675781 42.417969 57.214844 42.417969 56.730469 L 42.417969 29.90625 C 42.417969 29.425781 42.324219 28.960938 42.140625 28.515625 C 41.957031 28.070312 41.695312 27.675781 41.351562 27.335938 C 41.011719 26.992188 40.617188 26.730469 40.171875 26.546875 C 39.726562 26.363281 39.261719 26.269531 38.78125 26.269531 Z M 11.273438 18.085938 C 11.273438 17.382812 11.34375 16.6875 11.480469 16 C 11.617188 15.3125 11.820312 14.644531 12.085938 13.996094 C 12.355469 13.347656 12.683594 12.734375 13.074219 12.148438 C 13.464844 11.566406 13.90625 11.027344 14.402344 10.53125 C 14.898438 10.035156 15.4375 9.589844 16.023438 9.203125 C 16.605469 8.8125 17.222656 8.484375 17.871094 8.214844 C 18.519531 7.945312 19.1875 7.742188 19.875 7.605469 C 20.5625 7.46875 21.257812 7.402344 21.957031 7.402344 C 22.660156 7.402344 23.355469 7.46875 24.042969 7.605469 C 24.730469 7.742188 25.398438 7.945312 26.046875 8.214844 C 26.695312 8.484375 27.3125 8.8125 27.894531 9.203125 C 28.476562 9.589844 29.015625 10.035156 29.511719 10.53125 C 30.007812 11.027344 30.453125 11.566406 30.84375 12.148438 C 31.230469 12.734375 31.5625 13.347656 31.828125 13.996094 C 32.097656 14.644531 32.300781 15.3125 32.4375 16 C 32.574219 16.6875 32.644531 17.382812 32.644531 18.085938 L 32.644531 26.269531 L 11.273438 26.269531 Z M 11.273438 18.085938 " fill-opacity="1" fill-rule="nonzero"/><g clip-path="url(#2f5e5463b1)"><path fill="#ffffff" d="M 8.089844 26.042969 C 8.089844 26.042969 7.636719 15.585938 9 12.855469 C 10.363281 10.128906 11.730469 7.855469 15.367188 6.035156 C 17.9375 4.71875 20.664062 4.113281 23.550781 4.21875 C 25.367188 4.21875 27.1875 3.761719 27.640625 2.855469 C 26.105469 2.3125 24.527344 2 22.902344 1.925781 C 21.277344 1.847656 19.671875 2.003906 18.09375 2.398438 C 13.09375 3.761719 12.183594 4.671875 9.457031 7.855469 C 6.726562 11.039062 6.273438 11.949219 5.816406 15.585938 C 5.363281 19.222656 5.644531 26.28125 5.644531 26.28125 Z M 8.089844 26.042969 " fill-opacity="1" fill-rule="nonzero"/></g><path fill="#484848" d="M 1.726562 55.59375 C 4.453125 58.324219 10.820312 57.414062 13.09375 57.414062 C 15.410156 57.414062 24.230469 57.640625 29.234375 57.640625 C 34.234375 57.640625 41.507812 58.550781 42.417969 53.546875 C 42.417969 53.546875 43.835938 59.566406 39.945312 60.195312 C 36.054688 60.824219 4.226562 60.367188 4.226562 60.367188 C 4.226562 60.367188 0.816406 58.777344 1.726562 55.59375 Z M 1.726562 55.59375 " fill-opacity="1" fill-rule="nonzero"/><path fill="#ffffff" d="M 1.726562 34.226562 C 1.726562 34.226562 3.789062 30.609375 6.273438 29.679688 C 9.910156 28.316406 15.367188 29.679688 21.730469 29.679688 C 28.097656 29.679688 34.460938 29.679688 37.644531 29.222656 C 40.828125 28.769531 40.855469 28.355469 40.828125 26.953125 C 40.828125 26.953125 39.007812 26.496094 34.917969 26.496094 C 30.824219 26.496094 4.910156 26.042969 4.910156 26.042969 C 4.910156 26.042969 -0.546875 27.859375 1.726562 34.226562 Z M 1.726562 34.226562 " fill-opacity="1" fill-rule="nonzero"/><path fill="#484848" d="M 21.957031 51.957031 C 21.566406 51.957031 21.191406 51.882812 20.828125 51.730469 C 20.464844 51.582031 20.148438 51.367188 19.871094 51.089844 C 19.59375 50.8125 19.378906 50.496094 19.230469 50.132812 C 19.078125 49.769531 19.003906 49.394531 19.003906 49.003906 L 19.003906 44.675781 C 18.542969 44.363281 18.144531 43.980469 17.804688 43.539062 C 17.464844 43.09375 17.203125 42.609375 17.019531 42.082031 C 16.835938 41.554688 16.742188 41.011719 16.730469 40.453125 C 16.722656 39.894531 16.796875 39.351562 16.964844 38.816406 C 17.128906 38.285156 17.375 37.789062 17.695312 37.335938 C 18.019531 36.878906 18.40625 36.484375 18.855469 36.15625 C 19.304688 35.824219 19.796875 35.570312 20.324219 35.398438 C 20.855469 35.222656 21.398438 35.136719 21.957031 35.136719 C 22.152344 35.136719 22.34375 35.144531 22.535156 35.164062 C 23.0625 35.222656 23.574219 35.359375 24.0625 35.574219 C 24.550781 35.789062 24.996094 36.074219 25.398438 36.421875 C 25.800781 36.773438 26.140625 37.179688 26.417969 37.632812 C 26.699219 38.089844 26.902344 38.574219 27.03125 39.09375 C 27.160156 39.609375 27.210938 40.136719 27.179688 40.667969 C 27.148438 41.203125 27.039062 41.71875 26.847656 42.21875 C 26.660156 42.714844 26.398438 43.175781 26.070312 43.59375 C 25.738281 44.015625 25.355469 44.375 24.914062 44.675781 L 24.914062 49.003906 C 24.914062 49.394531 24.839844 49.769531 24.6875 50.132812 C 24.539062 50.496094 24.324219 50.8125 24.046875 51.089844 C 23.769531 51.367188 23.449219 51.582031 23.089844 51.730469 C 22.726562 51.882812 22.351562 51.957031 21.957031 51.957031 Z M 21.957031 51.957031 " fill-opacity="1" fill-rule="nonzero"/><g clip-path="url(#5467522d99)"><path fill="#484848" d="M 39.007812 25.597656 L 39.007812 18.085938 C 39.007812 17.527344 38.980469 16.96875 38.925781 16.414062 C 38.871094 15.859375 38.789062 15.308594 38.679688 14.757812 C 38.570312 14.210938 38.4375 13.671875 38.273438 13.136719 C 38.113281 12.601562 37.925781 12.078125 37.710938 11.5625 C 37.496094 11.042969 37.257812 10.539062 36.996094 10.046875 C 36.730469 9.554688 36.445312 9.078125 36.136719 8.613281 C 35.824219 8.148438 35.492188 7.699219 35.136719 7.269531 C 34.785156 6.835938 34.410156 6.425781 34.015625 6.03125 C 33.621094 5.632812 33.207031 5.261719 32.773438 4.90625 C 32.34375 4.550781 31.894531 4.21875 31.429688 3.910156 C 30.964844 3.597656 30.488281 3.3125 29.996094 3.050781 C 29.503906 2.785156 29 2.546875 28.484375 2.332031 C 27.96875 2.121094 27.441406 1.933594 26.90625 1.769531 C 26.375 1.609375 25.832031 1.472656 25.285156 1.363281 C 24.738281 1.253906 24.183594 1.171875 23.628906 1.117188 C 23.074219 1.0625 22.515625 1.035156 21.957031 1.035156 C 21.398438 1.035156 20.84375 1.0625 20.289062 1.117188 C 19.730469 1.171875 19.179688 1.253906 18.632812 1.363281 C 18.085938 1.472656 17.542969 1.609375 17.007812 1.769531 C 16.476562 1.933594 15.949219 2.121094 15.433594 2.332031 C 14.917969 2.546875 14.414062 2.785156 13.921875 3.050781 C 13.429688 3.3125 12.949219 3.597656 12.484375 3.910156 C 12.023438 4.21875 11.574219 4.550781 11.140625 4.90625 C 10.710938 5.261719 10.296875 5.632812 9.902344 6.03125 C 9.507812 6.425781 9.132812 6.835938 8.777344 7.269531 C 8.425781 7.699219 8.09375 8.148438 7.78125 8.613281 C 7.472656 9.078125 7.183594 9.554688 6.921875 10.046875 C 6.660156 10.539062 6.421875 11.042969 6.207031 11.5625 C 5.992188 12.078125 5.804688 12.601562 5.644531 13.136719 C 5.480469 13.671875 5.34375 14.210938 5.238281 14.757812 C 5.128906 15.308594 5.046875 15.859375 4.992188 16.414062 C 4.9375 16.96875 4.910156 17.527344 4.910156 18.085938 L 4.910156 25.597656 C 4.355469 25.628906 3.832031 25.757812 3.328125 25.988281 C 2.828125 26.21875 2.386719 26.535156 2.003906 26.9375 C 1.625 27.335938 1.332031 27.792969 1.125 28.308594 C 0.921875 28.820312 0.816406 29.355469 0.816406 29.90625 L 0.816406 56.730469 C 0.816406 57.015625 0.84375 57.296875 0.902344 57.574219 C 0.957031 57.851562 1.039062 58.121094 1.148438 58.382812 C 1.253906 58.644531 1.390625 58.894531 1.546875 59.128906 C 1.703125 59.367188 1.882812 59.582031 2.082031 59.785156 C 2.285156 59.984375 2.503906 60.164062 2.738281 60.320312 C 2.972656 60.480469 3.222656 60.613281 3.484375 60.71875 C 3.746094 60.828125 4.015625 60.910156 4.292969 60.964844 C 4.570312 61.023438 4.851562 61.050781 5.136719 61.050781 L 38.78125 61.050781 C 39.0625 61.050781 39.34375 61.023438 39.625 60.964844 C 39.902344 60.910156 40.171875 60.828125 40.433594 60.71875 C 40.695312 60.613281 40.945312 60.480469 41.179688 60.320312 C 41.414062 60.164062 41.632812 59.984375 41.832031 59.785156 C 42.035156 59.582031 42.214844 59.367188 42.371094 59.128906 C 42.527344 58.894531 42.660156 58.644531 42.769531 58.382812 C 42.878906 58.121094 42.960938 57.851562 43.015625 57.574219 C 43.070312 57.296875 43.101562 57.015625 43.101562 56.730469 L 43.101562 29.90625 C 43.097656 29.355469 42.996094 28.820312 42.792969 28.308594 C 42.585938 27.792969 42.292969 27.335938 41.914062 26.9375 C 41.53125 26.535156 41.089844 26.21875 40.589844 25.988281 C 40.085938 25.757812 39.558594 25.628906 39.007812 25.597656 Z M 21.957031 2.398438 C 22.988281 2.402344 24.007812 2.503906 25.015625 2.703125 C 26.027344 2.90625 27.007812 3.203125 27.957031 3.597656 C 28.910156 3.992188 29.8125 4.476562 30.667969 5.050781 C 31.523438 5.621094 32.316406 6.273438 33.042969 7 C 33.773438 7.726562 34.421875 8.519531 34.996094 9.375 C 35.566406 10.230469 36.050781 11.136719 36.445312 12.085938 C 36.839844 13.035156 37.136719 14.015625 37.339844 15.027344 C 37.542969 16.035156 37.644531 17.054688 37.644531 18.085938 L 37.644531 25.585938 L 32.644531 25.585938 L 32.644531 18.085938 C 32.644531 17.382812 32.574219 16.6875 32.4375 16 C 32.300781 15.3125 32.097656 14.644531 31.828125 13.996094 C 31.5625 13.347656 31.230469 12.734375 30.84375 12.148438 C 30.453125 11.566406 30.007812 11.027344 29.511719 10.53125 C 29.015625 10.035156 28.476562 9.589844 27.894531 9.203125 C 27.3125 8.8125 26.695312 8.484375 26.046875 8.214844 C 25.398438 7.945312 24.730469 7.742188 24.042969 7.605469 C 23.355469 7.46875 22.660156 7.402344 21.957031 7.402344 C 21.257812 7.402344 20.5625 7.46875 19.875 7.605469 C 19.1875 7.742188 18.519531 7.945312 17.871094 8.214844 C 17.222656 8.484375 16.605469 8.8125 16.023438 9.203125 C 15.4375 9.589844 14.898438 10.035156 14.402344 10.53125 C 13.90625 11.027344 13.464844 11.566406 13.074219 12.148438 C 12.683594 12.734375 12.355469 13.347656 12.085938 13.996094 C 11.820312 14.644531 11.617188 15.3125 11.480469 16 C 11.34375 16.6875 11.273438 17.382812 11.273438 18.085938 L 11.273438 25.585938 L 6.273438 25.585938 L 6.273438 18.085938 C 6.273438 17.054688 6.375 16.035156 6.578125 15.027344 C 6.777344 14.015625 7.078125 13.035156 7.472656 12.085938 C 7.867188 11.136719 8.351562 10.230469 8.921875 9.375 C 9.496094 8.519531 10.144531 7.726562 10.871094 7 C 11.601562 6.273438 12.394531 5.621094 13.25 5.050781 C 14.105469 4.476562 15.007812 3.992188 15.957031 3.597656 C 16.910156 3.203125 17.890625 2.90625 18.898438 2.703125 C 19.910156 2.503906 20.929688 2.402344 21.957031 2.398438 Z M 31.277344 25.585938 L 12.636719 25.585938 L 12.636719 18.085938 C 12.636719 17.472656 12.699219 16.867188 12.816406 16.265625 C 12.9375 15.667969 13.113281 15.082031 13.347656 14.519531 C 13.582031 13.953125 13.867188 13.417969 14.207031 12.90625 C 14.546875 12.398438 14.933594 11.925781 15.367188 11.496094 C 15.800781 11.0625 16.269531 10.675781 16.78125 10.335938 C 17.289062 9.996094 17.828125 9.707031 18.390625 9.472656 C 18.957031 9.238281 19.539062 9.0625 20.140625 8.945312 C 20.742188 8.824219 21.347656 8.765625 21.957031 8.765625 C 22.570312 8.765625 23.175781 8.824219 23.777344 8.945312 C 24.378906 9.0625 24.960938 9.238281 25.523438 9.472656 C 26.089844 9.707031 26.628906 9.996094 27.136719 10.335938 C 27.644531 10.675781 28.117188 11.0625 28.550781 11.496094 C 28.980469 11.925781 29.367188 12.398438 29.707031 12.90625 C 30.046875 13.417969 30.335938 13.953125 30.570312 14.519531 C 30.804688 15.082031 30.980469 15.667969 31.101562 16.265625 C 31.21875 16.867188 31.277344 17.472656 31.277344 18.085938 Z M 41.734375 56.730469 C 41.734375 57.125 41.660156 57.5 41.511719 57.863281 C 41.359375 58.222656 41.148438 58.542969 40.871094 58.820312 C 40.59375 59.097656 40.273438 59.3125 39.910156 59.460938 C 39.550781 59.609375 39.171875 59.6875 38.78125 59.6875 L 5.136719 59.6875 C 4.746094 59.6875 4.367188 59.609375 4.003906 59.460938 C 3.644531 59.308594 3.324219 59.097656 3.046875 58.820312 C 2.769531 58.542969 2.558594 58.222656 2.40625 57.863281 C 2.257812 57.5 2.179688 57.125 2.179688 56.730469 L 2.179688 29.90625 C 2.179688 29.515625 2.257812 29.136719 2.40625 28.777344 C 2.558594 28.414062 2.769531 28.09375 3.046875 27.816406 C 3.324219 27.539062 3.644531 27.328125 4.003906 27.175781 C 4.367188 27.027344 4.746094 26.953125 5.136719 26.953125 L 38.78125 26.953125 C 39.171875 26.953125 39.550781 27.027344 39.910156 27.175781 C 40.273438 27.328125 40.59375 27.539062 40.871094 27.816406 C 41.148438 28.09375 41.359375 28.414062 41.511719 28.777344 C 41.660156 29.136719 41.734375 29.515625 41.734375 29.90625 Z M 41.734375 56.730469 " fill-opacity="1" fill-rule="nonzero"/></g></g></g></g><g mask="url(#ae5082136d)"><g transform="matrix(1, 0, 0, 1, 118, 12)"><g clip-path="url(#748ca7252f)"><g clip-path="url(#aa83ff8e59)"><g clip-path="url(#0a5c48feb6)"><path fill="#7ab2b2" d="M 0.660156 0.175781 L 13.90625 0.175781 L 13.90625 13.421875 L 0.660156 13.421875 Z M 0.660156 0.175781 " fill-opacity="1" fill-rule="nonzero"/></g></g></g></g></g><g mask="url(#86a9edf6e0)"><g transform="matrix(1, 0, 0, 1, 120, 14)"><g clip-path="url(#8a387c1044)"><g clip-path="url(#4ad2debf86)"><g clip-path="url(#36773eacc4)"><path fill="#7ab2b2" d="M 0.886719 0.398438 L 9.683594 0.398438 L 9.683594 9.195312 L 0.886719 9.195312 Z M 0.886719 0.398438 " fill-opacity="1" fill-rule="nonzero"/></g></g></g></g></g><g mask="url(#2dd13060c8)"><g transform="matrix(1, 0, 0, 1, 124, 100)"><g clip-path="url(#238f12d0c5)"><g clip-path="url(#e4a5e904a8)"><g clip-path="url(#a04d642bf0)"><path fill="#7ab2b2" d="M 0.25 0.332031 L 17.695312 0.332031 L 17.695312 17.777344 L 0.25 17.777344 Z M 0.25 0.332031 " fill-opacity="1" fill-rule="nonzero"/></g></g></g></g></g><g mask="url(#be8c7fdd26)"><g transform="matrix(1, 0, 0, 1, 126, 103)"><g clip-path="url(#bc4b433b17)"><g clip-path="url(#60bee8c2c2)"><g clip-path="url(#661baa1e9b)"><path fill="#7ab2b2" d="M 1.179688 0.261719 L 12.765625 0.261719 L 12.765625 11.847656 L 1.179688 11.847656 Z M 1.179688 0.261719 " fill-opacity="1" fill-rule="nonzero"/></g></g></g></g></g><g mask="url(#58ffdbc5f1)"><g transform="matrix(1, 0, 0, 1, 2, 61)"><g clip-path="url(#630304e9f5)"><g clip-path="url(#6916903204)"><g clip-path="url(#2895265682)"><path fill="#7ab2b2" d="M 0.304688 0.375 L 17.75 0.375 L 17.75 17.820312 L 0.304688 17.820312 Z M 0.304688 0.375 " fill-opacity="1" fill-rule="nonzero"/></g></g></g></g></g><g mask="url(#95d70af78b)"><g transform="matrix(1, 0, 0, 1, 5, 64)"><g clip-path="url(#11e6db392f)"><g clip-path="url(#52bf08e9e4)"><g clip-path="url(#954bcc015f)"><path fill="#7ab2b2" d="M 0.234375 0.304688 L 11.820312 0.304688 L 11.820312 11.890625 L 0.234375 11.890625 Z M 0.234375 0.304688 " fill-opacity="1" fill-rule="nonzero"/></g></g></g></g></g></svg>