<svg width="12" height="13" viewBox="0 0 12 13" fill="none" xmlns="http://www.w3.org/2000/svg">
<path d="M5.96514 4.15C6.35174 4.15 6.66514 3.8366 6.66514 3.45C6.66514 3.0634 6.35174 2.75 5.96514 2.75C5.57854 2.75 5.26514 3.0634 5.26514 3.45C5.26514 3.8366 5.57854 4.15 5.96514 4.15Z" fill="#B7B7B7"/>
<path d="M7.5 9H6.5V5H5C4.86739 5 4.74021 5.05268 4.64645 5.14645C4.55268 5.24021 4.5 5.36739 4.5 5.5C4.5 5.63261 4.55268 5.75979 4.64645 5.85355C4.74021 5.94732 4.86739 6 5 6H5.5V9H4.5C4.36739 9 4.24021 9.05268 4.14645 9.14644C4.05268 9.24021 4 9.36739 4 9.5C4 9.63261 4.05268 9.75978 4.14645 9.85355C4.24021 9.94732 4.36739 10 4.5 10H7.5C7.63261 10 7.75979 9.94732 7.85355 9.85355C7.94732 9.75978 8 9.63261 8 9.5C8 9.36739 7.94732 9.24021 7.85355 9.14644C7.75979 9.05268 7.63261 9 7.5 9Z" fill="#B7B7B7"/>
<path d="M6 0.5C4.81331 0.5 3.65328 0.851894 2.66658 1.51118C1.67989 2.17047 0.910851 3.10754 0.456725 4.2039C0.00259972 5.30025 -0.11622 6.50665 0.115291 7.67054C0.346802 8.83443 0.918247 9.90352 1.75736 10.7426C2.59648 11.5818 3.66557 12.1532 4.82946 12.3847C5.99335 12.6162 7.19975 12.4974 8.2961 12.0433C9.39246 11.5891 10.3295 10.8201 10.9888 9.83342C11.6481 8.84672 12 7.68669 12 6.5C12 4.9087 11.3679 3.38258 10.2426 2.25736C9.11742 1.13214 7.5913 0.5 6 0.5ZM6 11.5C5.0111 11.5 4.0444 11.2068 3.22215 10.6573C2.39991 10.1079 1.75904 9.32704 1.3806 8.41341C1.00217 7.49978 0.90315 6.49445 1.09608 5.52455C1.289 4.55464 1.76521 3.66373 2.46447 2.96447C3.16373 2.2652 4.05465 1.789 5.02455 1.59607C5.99445 1.40315 6.99979 1.50216 7.91342 1.8806C8.82705 2.25904 9.60794 2.8999 10.1573 3.72215C10.7068 4.54439 11 5.51109 11 6.5C11 7.15661 10.8707 7.80679 10.6194 8.41341C10.3681 9.02004 9.99983 9.57124 9.53553 10.0355C9.07124 10.4998 8.52005 10.8681 7.91342 11.1194C7.30679 11.3707 6.65661 11.5 6 11.5Z" fill="#B7B7B7"/>
</svg>
