<svg width="27" height="27" viewBox="0 0 27 27" fill="none" xmlns="http://www.w3.org/2000/svg">
<path d="M13.3103 9.975C13.8843 9.975 14.3496 9.5049 14.3496 8.925C14.3496 8.3451 13.8843 7.875 13.3103 7.875C12.7363 7.875 12.271 8.3451 12.271 8.925C12.271 9.5049 12.7363 9.975 13.3103 9.975Z" fill="#7AB2B2"/>
<path d="M15.5895 17.25H14.1048V11.25H11.8778C11.6809 11.25 11.4921 11.329 11.3528 11.4697C11.2136 11.6103 11.1354 11.8011 11.1354 12C11.1354 12.1989 11.2136 12.3897 11.3528 12.5303C11.4921 12.671 11.6809 12.75 11.8778 12.75H12.6201V17.25H11.1354C10.9385 17.25 10.7497 17.329 10.6105 17.4697C10.4713 17.6103 10.3931 17.8011 10.3931 18C10.3931 18.1989 10.4713 18.3897 10.6105 18.5303C10.7497 18.671 10.9385 18.75 11.1354 18.75H15.5895C15.7864 18.75 15.9752 18.671 16.1144 18.5303C16.2536 18.3897 16.3318 18.1989 16.3318 18C16.3318 17.8011 16.2536 17.6103 16.1144 17.4697C15.9752 17.329 15.7864 17.25 15.5895 17.25Z" fill="#7AB2B2"/>
<path d="M13.3623 4.5C11.6004 4.5 9.8781 5.02784 8.41316 6.01677C6.94822 7.00571 5.80644 8.41131 5.1322 10.0558C4.45796 11.7004 4.28155 13.51 4.62527 15.2558C4.969 17.0016 5.81742 18.6053 7.06325 19.864C8.30908 21.1226 9.89636 21.9798 11.6244 22.3271C13.3524 22.6743 15.1435 22.4961 16.7713 21.8149C18.399 21.1337 19.7903 19.9802 20.7691 18.5001C21.748 17.0201 22.2704 15.28 22.2704 13.5C22.2704 11.1131 21.3319 8.82387 19.6613 7.13604C17.9907 5.44821 15.7249 4.5 13.3623 4.5ZM13.3623 21C11.894 21 10.4588 20.5601 9.23801 19.736C8.01723 18.9119 7.06574 17.7406 6.50388 16.3701C5.94201 14.9997 5.795 13.4917 6.08144 12.0368C6.36788 10.582 7.07489 9.24559 8.11308 8.1967C9.15127 7.1478 10.474 6.4335 11.914 6.14411C13.354 5.85472 14.8466 6.00325 16.2031 6.5709C17.5596 7.13856 18.719 8.09985 19.5347 9.33322C20.3504 10.5666 20.7857 12.0166 20.7857 13.5C20.7857 14.4849 20.5937 15.4602 20.2207 16.3701C19.8476 17.2801 19.3008 18.1069 18.6115 18.8033C17.9221 19.4997 17.1038 20.0522 16.2031 20.4291C15.3025 20.806 14.3371 21 13.3623 21Z" fill="#7AB2B2"/>
</svg>
