<svg width="19" height="19" viewBox="0 0 19 19" fill="none" xmlns="http://www.w3.org/2000/svg">
<path d="M9.44746 5.975C10.0274 5.975 10.4975 5.5049 10.4975 4.925C10.4975 4.3451 10.0274 3.875 9.44746 3.875C8.86756 3.875 8.39746 4.3451 8.39746 4.925C8.39746 5.5049 8.86756 5.975 9.44746 5.975Z" fill="#B7B7B7"/>
<path d="M11.75 13.25H10.25V7.25H8C7.80109 7.25 7.61032 7.32902 7.46967 7.46967C7.32902 7.61032 7.25 7.80109 7.25 8C7.25 8.19891 7.32902 8.38968 7.46967 8.53033C7.61032 8.67098 7.80109 8.75 8 8.75H8.75V13.25H7.25C7.05109 13.25 6.86032 13.329 6.71967 13.4697C6.57902 13.6103 6.5 13.8011 6.5 14C6.5 14.1989 6.57902 14.3897 6.71967 14.5303C6.86032 14.671 7.05109 14.75 7.25 14.75H11.75C11.9489 14.75 12.1397 14.671 12.2803 14.5303C12.421 14.3897 12.5 14.1989 12.5 14C12.5 13.8011 12.421 13.6103 12.2803 13.4697C12.1397 13.329 11.9489 13.25 11.75 13.25Z" fill="#B7B7B7"/>
<path d="M9.5 0.5C7.71997 0.5 5.97991 1.02784 4.49987 2.01677C3.01983 3.00571 1.86628 4.41131 1.18509 6.05585C0.5039 7.70038 0.32567 9.50998 0.672937 11.2558C1.0202 13.0016 1.87737 14.6053 3.13604 15.864C4.39472 17.1226 5.99836 17.9798 7.74419 18.3271C9.49002 18.6743 11.2996 18.4961 12.9442 17.8149C14.5887 17.1337 15.9943 15.9802 16.9832 14.5001C17.9722 13.0201 18.5 11.28 18.5 9.5C18.5 7.11305 17.5518 4.82387 15.864 3.13604C14.1761 1.44821 11.887 0.5 9.5 0.5ZM9.5 17C8.01664 17 6.5666 16.5601 5.33323 15.736C4.09986 14.9119 3.13856 13.7406 2.57091 12.3701C2.00325 10.9997 1.85473 9.49168 2.14411 8.03682C2.4335 6.58196 3.14781 5.24559 4.1967 4.1967C5.2456 3.1478 6.58197 2.4335 8.03683 2.14411C9.49168 1.85472 10.9997 2.00325 12.3701 2.5709C13.7406 3.13856 14.9119 4.09985 15.736 5.33322C16.5601 6.56659 17 8.01664 17 9.5C17 10.4849 16.806 11.4602 16.4291 12.3701C16.0522 13.2801 15.4997 14.1069 14.8033 14.8033C14.1069 15.4997 13.2801 16.0522 12.3701 16.4291C11.4602 16.806 10.4849 17 9.5 17Z" fill="#B7B7B7"/>
</svg>
