<svg version="1.1" id="Layer_1" xmlns="http://www.w3.org/2000/svg" xmlns:xlink="http://www.w3.org/1999/xlink" x="0px" y="0px"
	 width="100%" viewBox="0 0 125 135" enable-background="new 0 0 125 135" xml:space="preserve">
<path fill="#FDFDFD" opacity="1.000000" stroke="none" 
	d="
M126.000000,51.000000 
	C126.000000,79.666664 126.000000,107.833336 126.000000,136.000000 
	C84.333336,136.000000 42.666668,136.000000 1.000000,136.000000 
	C1.000000,91.000000 1.000000,46.000000 1.000000,1.000000 
	C42.666668,1.000000 84.333336,1.000000 126.000000,1.000000 
	C126.000000,17.500000 126.000000,34.000000 126.000000,51.000000 
M94.921379,58.600571 
	C94.921341,57.102856 94.938629,55.604904 94.918243,54.107468 
	C94.834503,47.958328 93.043602,46.197536 86.839699,46.150444 
	C85.674873,46.141602 84.491730,46.017441 83.348656,46.175350 
	C80.609459,46.553753 79.055908,45.666603 78.474068,42.763405 
	C77.612267,38.463306 74.665581,36.959457 70.405853,37.104279 
	C64.920563,37.290764 59.424137,37.148849 53.932507,37.149284 
	C44.744255,37.150005 44.744255,37.150307 41.302280,46.149181 
	C38.991367,46.149181 36.519203,46.128914 34.047474,46.153225 
	C28.142401,46.211304 26.253531,48.012421 26.225424,53.838196 
	C26.176447,63.989155 26.151787,74.141029 26.236723,84.291512 
	C26.281834,89.682571 28.113806,91.495300 33.479782,91.509987 
	C51.452259,91.559196 69.425018,91.556358 87.397522,91.512421 
	C93.025955,91.498665 94.864197,89.643791 94.905304,84.035683 
	C94.965080,75.881889 94.921112,67.727318 94.921379,58.600571 
M111.970917,82.223152 
	C110.768387,85.315811 109.410095,88.361748 108.459572,91.530014 
	C108.179550,92.463387 109.053162,93.742851 109.398079,94.863716 
	C110.319099,94.357834 111.372597,93.994064 112.117683,93.299454 
	C112.676743,92.778259 112.836281,91.830345 113.178650,91.074661 
	C129.756393,54.484402 106.317085,13.049290 66.276482,8.887029 
	C45.597767,6.737455 28.519541,14.488380 15.230515,30.440479 
	C14.397520,31.440401 14.316125,33.066448 13.885056,34.401196 
	C15.102180,34.790283 16.312416,35.488045 17.537609,35.515373 
	C23.031851,35.637920 28.536470,35.708599 34.022739,35.466705 
	C35.296688,35.410538 36.513321,34.054535 37.756325,33.296627 
	C36.447506,32.572075 35.173267,31.309551 33.823452,31.222782 
	C29.597569,30.951130 25.343178,31.122965 20.711967,31.122965 
	C32.921303,13.786979 62.463806,7.526864 83.154732,17.391266 
	C106.851776,28.688837 119.396461,56.401344 111.970917,82.223152 
M70.140450,119.992874 
	C65.658951,120.164291 61.132500,120.831360 56.702980,120.429634 
	C17.063454,116.834541 -3.697445,77.352951 11.916924,43.580635 
	C12.522058,42.271793 11.954537,40.420788 11.933434,38.822411 
	C10.672544,39.814411 8.875716,40.541805 8.234809,41.839909 
	C2.668635,53.113659 1.411222,65.149101 3.551922,77.345467 
	C7.703556,100.998856 26.067455,119.659576 49.811680,123.868202 
	C72.316948,127.857231 91.086693,120.519836 105.823387,103.053726 
	C106.681641,102.036507 106.889565,100.470573 107.400131,99.160004 
	C106.059967,98.765915 104.727074,98.063515 103.378372,98.031738 
	C97.884102,97.902267 92.380814,97.865768 86.891060,98.069817 
	C85.744415,98.112434 84.641167,99.322556 83.517921,99.994667 
	C84.608063,100.670372 85.672356,101.874367 86.792885,101.929214 
	C91.343033,102.151894 95.910446,102.021790 100.973419,102.021790 
	C93.185020,111.390587 84.412643,116.528633 70.140450,119.992874 
z"/>
<path fill="#080808" opacity="1.000000" stroke="none" 
	d="
M94.921379,59.086826 
	C94.921112,67.727318 94.965080,75.881889 94.905304,84.035683 
	C94.864197,89.643791 93.025955,91.498665 87.397522,91.512421 
	C69.425018,91.556358 51.452259,91.559196 33.479782,91.509987 
	C28.113806,91.495300 26.281834,89.682571 26.236723,84.291512 
	C26.151787,74.141029 26.176447,63.989155 26.225424,53.838196 
	C26.253531,48.012421 28.142401,46.211304 34.047474,46.153225 
	C36.519203,46.128914 38.991367,46.149181 41.302280,46.149181 
	C44.744255,37.150307 44.744255,37.150005 53.932507,37.149284 
	C59.424137,37.148849 64.920563,37.290764 70.405853,37.104279 
	C74.665581,36.959457 77.612267,38.463306 78.474068,42.763405 
	C79.055908,45.666603 80.609459,46.553753 83.348656,46.175350 
	C84.491730,46.017441 85.674873,46.141602 86.839699,46.150444 
	C93.043602,46.197536 94.834503,47.958328 94.918243,54.107468 
	C94.938629,55.604904 94.921341,57.102856 94.921379,59.086826 
M48.105133,61.840157 
	C47.695549,62.920521 47.185074,63.974392 46.893253,65.085678 
	C45.354134,70.946861 47.673943,77.474617 52.318714,80.511040 
	C57.689251,84.021896 64.638435,83.779503 69.592003,79.908546 
	C74.189384,76.315918 76.104996,69.369072 73.811203,63.664410 
	C69.572586,53.122940 55.407925,51.031185 48.105133,61.840157 
M55.882858,50.194103 
	C59.510098,50.193211 63.145241,50.324303 66.759560,50.107742 
	C67.789742,50.046017 68.759415,48.974468 69.756836,48.365990 
	C68.829620,47.629166 67.936394,46.312923 66.969276,46.256180 
	C62.861492,46.015175 58.721539,45.987522 54.616936,46.250420 
	C53.518848,46.320755 52.504265,47.694908 51.451344,48.470497 
	C52.630016,49.044952 53.808689,49.619404 55.882858,50.194103 
z"/>
<path fill="#121212" opacity="1.000000" stroke="none" 
	d="
M112.056587,81.825409 
	C119.396461,56.401344 106.851776,28.688837 83.154732,17.391266 
	C62.463806,7.526864 32.921303,13.786979 20.711967,31.122965 
	C25.343178,31.122965 29.597569,30.951130 33.823452,31.222782 
	C35.173267,31.309551 36.447506,32.572075 37.756325,33.296631 
	C36.513321,34.054535 35.296688,35.410538 34.022739,35.466705 
	C28.536470,35.708599 23.031851,35.637920 17.537609,35.515373 
	C16.312416,35.488045 15.102180,34.790283 13.885056,34.401196 
	C14.316125,33.066448 14.397520,31.440401 15.230515,30.440479 
	C28.519541,14.488380 45.597767,6.737455 66.276482,8.887029 
	C106.317085,13.049290 129.756393,54.484402 113.178650,91.074661 
	C112.836281,91.830345 112.676743,92.778259 112.117683,93.299454 
	C111.372597,93.994064 110.319099,94.357834 109.398071,94.863708 
	C109.053162,93.742851 108.179550,92.463387 108.459572,91.530014 
	C109.410095,88.361748 110.768387,85.315811 112.056587,81.825409 
z"/>
<path fill="#0D0D0D" opacity="1.000000" stroke="none" 
	d="
M70.569626,119.948807 
	C84.412643,116.528633 93.185020,111.390587 100.973419,102.021790 
	C95.910446,102.021790 91.343033,102.151894 86.792885,101.929214 
	C85.672356,101.874367 84.608063,100.670372 83.517914,99.994659 
	C84.641167,99.322556 85.744415,98.112434 86.891060,98.069817 
	C92.380814,97.865768 97.884102,97.902267 103.378372,98.031738 
	C104.727074,98.063515 106.059967,98.765915 107.400131,99.160004 
	C106.889565,100.470573 106.681641,102.036507 105.823387,103.053726 
	C91.086693,120.519836 72.316948,127.857231 49.811680,123.868202 
	C26.067455,119.659576 7.703556,100.998856 3.551922,77.345467 
	C1.411222,65.149101 2.668635,53.113659 8.234809,41.839909 
	C8.875716,40.541805 10.672544,39.814411 11.933435,38.822411 
	C11.954537,40.420788 12.522058,42.271793 11.916924,43.580635 
	C-3.697445,77.352951 17.063454,116.834541 56.702980,120.429634 
	C61.132500,120.831360 65.658951,120.164291 70.569626,119.948807 
z"/>
<path fill="#EFEFEF" opacity="1.000000" stroke="none" 
	d="
M48.296822,61.516060 
	C55.407925,51.031185 69.572586,53.122940 73.811203,63.664410 
	C76.104996,69.369072 74.189384,76.315918 69.592003,79.908546 
	C64.638435,83.779503 57.689251,84.021896 52.318714,80.511040 
	C47.673943,77.474617 45.354134,70.946861 46.893253,65.085678 
	C47.185074,63.974392 47.695549,62.920521 48.296822,61.516060 
M70.099556,66.051292 
	C67.778183,60.615204 64.634949,58.425026 59.552361,58.969097 
	C54.933418,59.463535 51.867428,61.970322 50.954597,66.614197 
	C50.166363,70.624222 50.970856,74.290787 54.446457,76.841522 
	C57.977486,79.432938 61.831604,79.792091 65.651497,77.524353 
	C69.685371,75.129578 71.038864,71.429436 70.099556,66.051292 
z"/>
<path fill="#ECECEC" opacity="1.000000" stroke="none" 
	d="
M55.435112,50.193977 
	C53.808689,49.619404 52.630016,49.044952 51.451344,48.470497 
	C52.504265,47.694908 53.518848,46.320755 54.616936,46.250420 
	C58.721539,45.987522 62.861492,46.015175 66.969276,46.256180 
	C67.936394,46.312923 68.829620,47.629166 69.756836,48.365990 
	C68.759415,48.974468 67.789742,50.046017 66.759560,50.107742 
	C63.145241,50.324303 59.510098,50.193211 55.435112,50.193977 
z"/>
<path fill="#050505" opacity="1.000000" stroke="none" 
	d="
M70.180977,66.464676 
	C71.038864,71.429436 69.685371,75.129578 65.651497,77.524353 
	C61.831604,79.792091 57.977486,79.432938 54.446457,76.841522 
	C50.970856,74.290787 50.166363,70.624222 50.954597,66.614197 
	C51.867428,61.970322 54.933418,59.463535 59.552361,58.969097 
	C64.634949,58.425026 67.778183,60.615204 70.180977,66.464676 
z"/>
</svg>