<svg width="43" height="32" viewBox="0 0 43 32" fill="none" xmlns="http://www.w3.org/2000/svg">
<path fill-rule="evenodd" clip-rule="evenodd" d="M32.9579 4.97387H31.2617L29.4658 1.79059C28.8406 0.684618 27.6796 0.00159874 26.4217 0H15.6522C14.3944 0.00159874 13.2333 0.684618 12.6082 1.79059L10.8123 4.97387H10.5185V2.84221C10.5185 2.44981 10.2045 2.13166 9.81726 2.13166H4.2074C3.82014 2.13166 3.50616 2.44981 3.50616 2.84221V4.97387C1.57076 4.97618 0.00227901 6.56551 0 8.52664V28.4221C0.00227901 30.3833 1.57076 31.9726 3.50616 31.9749H38.5678C40.5032 31.9726 42.0717 30.3833 42.074 28.4221V8.52664C42.0717 6.56551 40.5032 4.97618 38.5678 4.97387H37.1653H34.3604H32.9579ZM9.11602 3.55277H4.90863V4.97387H9.11602V3.55277ZM38.5678 30.5538C39.7296 30.5538 40.6715 29.5994 40.6715 28.4221V8.52664C40.6715 7.34934 39.7296 6.39498 38.5678 6.39498H30.8542C30.6032 6.39551 30.3711 6.25997 30.2456 6.0397L28.2449 2.49546C27.8701 1.83323 27.1752 1.42368 26.4217 1.42111H15.6522C14.8969 1.42297 14.2002 1.83385 13.8255 2.4983L11.8284 6.0397C11.7029 6.25997 11.4708 6.39551 11.2197 6.39498H3.50616C2.34431 6.39498 1.40247 7.34934 1.40247 8.52664V28.4221C1.40247 29.5994 2.34431 30.5538 3.50616 30.5538H38.5678Z" fill="black"/>
<path d="M30.4626 19.9403C30.462 19.94 30.4615 19.9398 30.4609 19.9395C30.0991 19.7995 29.6939 19.9831 29.5556 20.3495C27.7526 25.1127 22.4803 27.4931 17.7796 25.6662C14.6176 24.4373 12.3885 21.5334 11.9911 18.1255L13.7028 19.86C13.9719 20.1422 14.4158 20.15 14.6944 19.8774C14.9729 19.6047 14.9806 19.1549 14.7115 18.8726C14.7059 18.8667 14.7001 18.8609 14.6944 18.8552L11.719 15.8404C11.4452 15.563 11.0013 15.563 10.7275 15.8404L7.74865 18.8552C7.47955 19.1375 7.48726 19.5873 7.76583 19.86C8.03756 20.126 8.46846 20.126 8.74019 19.86L10.5634 18.0125C11.0878 23.8749 16.203 28.1965 21.9885 27.6651C25.9857 27.298 29.4282 24.658 30.8627 20.8596C31.0028 20.4939 30.8237 20.0822 30.4626 19.9403Z" fill="black"/>
<path d="M33.3512 14.2291C33.3453 14.2348 33.3396 14.2407 33.334 14.2465L31.5108 16.094C30.9875 10.2315 25.8731 5.9089 20.0875 6.43915C16.0735 6.80704 12.6198 9.46682 11.1954 13.2873C11.0585 13.6544 11.2412 14.0645 11.6035 14.2032C11.9658 14.3419 12.3705 14.1567 12.5074 13.7896C14.2903 9.01873 19.5526 6.61563 24.2609 8.42222C27.4436 9.64348 29.69 12.5595 30.0866 15.9845L28.3749 14.2465C28.1058 13.9643 27.6619 13.9564 27.3833 14.2291C27.1047 14.5017 27.097 14.9516 27.3661 15.2338C27.3717 15.2398 27.3775 15.2456 27.3833 15.2513L30.3586 18.2661C30.6325 18.5435 31.0764 18.5435 31.3502 18.2661L34.3255 15.2513C34.6041 14.9787 34.6118 14.5288 34.3427 14.2465C34.0737 13.9643 33.6297 13.9564 33.3512 14.2291Z" fill="black"/>
</svg>
