<svg width="16" height="11" viewBox="0 0 16 11" fill="none" xmlns="http://www.w3.org/2000/svg">
<path d="M8 0C4.0248 0 0 1.2368 0 3.6C0 5.9632 4.0248 7.2 8 7.2C11.9752 7.2 16 5.9632 16 3.6C16 1.2368 11.976 0 8 0ZM4 7.9504V10.3504C4.9896 10.5896 6.084 10.736 7.2 10.7832V8.3832C6.12191 8.34202 5.0503 8.19708 4 7.9504ZM8.8 8.3824V10.7824C9.87809 10.7412 10.9497 10.5963 12 10.3496V7.9496C10.9497 8.19628 9.87809 8.34122 8.8 8.3824ZM13.6 7.4376V9.8376C15.0408 9.2336 16 8.352 16 7.2V4.8C16 5.952 15.0408 6.8336 13.6 7.4376ZM2.4 9.8376V7.4376C0.96 6.8336 0 5.9512 0 4.8V7.2C0 8.3512 0.96 9.2336 2.4 9.8376Z" fill="#FFBF1A"/>
</svg>
