<svg width="17" height="17" viewBox="0 0 17 17" fill="none" xmlns="http://www.w3.org/2000/svg">
<path d="M5.97945 8.5L7.65982 10.1804L11.0206 6.81963M5.00063 2.36413C5.6033 2.31603 6.17544 2.07906 6.63563 1.68694C7.15563 1.24355 7.81663 1 8.5 1C9.18337 1 9.84437 1.24355 10.3644 1.68694C10.8246 2.07906 11.3967 2.31603 11.9994 2.36413C12.6806 2.41832 13.3201 2.7135 13.8033 3.19669C14.2865 3.67988 14.5817 4.31945 14.6359 5.00063C14.684 5.6033 14.9209 6.17544 15.3131 6.63563C15.7564 7.15563 16 7.81663 16 8.5C16 9.18337 15.7564 9.84437 15.3131 10.3644C14.9209 10.8246 14.684 11.3967 14.6359 11.9994C14.5817 12.6806 14.2865 13.3201 13.8033 13.8033C13.3201 14.2865 12.6806 14.5817 11.9994 14.6359C11.3967 14.684 10.8246 14.9209 10.3644 15.3131C9.84437 15.7564 9.18337 16 8.5 16C7.81663 16 7.15563 15.7564 6.63563 15.3131C6.17544 14.9209 5.6033 14.684 5.00063 14.6359C4.31945 14.5817 3.67988 14.2865 3.19669 13.8033C2.7135 13.3201 2.41832 12.6806 2.36413 11.9994C2.31603 11.3967 2.07906 10.8246 1.68694 10.3644C1.24355 9.84437 1 9.18337 1 8.5C1 7.81663 1.24355 7.15563 1.68694 6.63563C2.07906 6.17544 2.31603 5.6033 2.36413 5.00063C2.41832 4.31945 2.7135 3.67988 3.19669 3.19669C3.67988 2.7135 4.31945 2.41832 5.00063 2.36413Z" stroke="#7AB2B2" stroke-width="1.5" stroke-linecap="round" stroke-linejoin="round"/>
</svg>
