<svg width="16" height="16" viewBox="0 0 16 16" fill="none" xmlns="http://www.w3.org/2000/svg">
<path fill-rule="evenodd" clip-rule="evenodd" d="M4.26686 1.4551C4.91012 1.40375 5.52077 1.15073 6.01186 0.732104C6.56652 0.259695 7.27129 0.000244141 7.99986 0.000244141C8.72843 0.000244141 9.4332 0.259695 9.98786 0.732104C10.4789 1.15073 11.0896 1.40375 11.7329 1.4551C12.4593 1.51316 13.1413 1.82807 13.6566 2.34337C14.1719 2.85867 14.4868 3.54067 14.5449 4.2671C14.5959 4.9101 14.8489 5.5211 15.2679 6.0121C15.7403 6.56677 15.9997 7.27153 15.9997 8.0001C15.9997 8.72868 15.7403 9.43344 15.2679 9.9881C14.8492 10.4792 14.5962 11.0898 14.5449 11.7331C14.4868 12.4595 14.1719 13.1415 13.6566 13.6568C13.1413 14.1721 12.4593 14.487 11.7329 14.5451C11.0896 14.5965 10.4789 14.8495 9.98786 15.2681C9.4332 15.7405 8.72843 16 7.99986 16C7.27129 16 6.56652 15.7405 6.01186 15.2681C5.52077 14.8495 4.91012 14.5965 4.26686 14.5451C3.54043 14.487 2.85843 14.1721 2.34313 13.6568C1.82782 13.1415 1.51292 12.4595 1.45486 11.7331C1.4035 11.0898 1.15049 10.4792 0.73186 9.9881C0.259451 9.43344 0 8.72868 0 8.0001C0 7.27153 0.259451 6.56677 0.73186 6.0121C1.15049 5.52102 1.4035 4.91036 1.45486 4.2671C1.51292 3.54067 1.82782 2.85867 2.34313 2.34337C2.85843 1.82807 3.54043 1.51316 4.26686 1.4551ZM11.7069 6.7071C11.889 6.5185 11.9898 6.2659 11.9875 6.0037C11.9853 5.74151 11.8801 5.49069 11.6947 5.30529C11.5093 5.11988 11.2585 5.01471 10.9963 5.01243C10.7341 5.01015 10.4815 5.11095 10.2929 5.2931L6.99986 8.5861L5.70686 7.2931C5.51826 7.11095 5.26565 7.01015 5.00346 7.01243C4.74126 7.01471 4.49045 7.11988 4.30504 7.30529C4.11963 7.49069 4.01446 7.74151 4.01219 8.0037C4.00991 8.2659 4.1107 8.5185 4.29286 8.7071L6.29286 10.7071C6.48039 10.8946 6.7347 10.9999 6.99986 10.9999C7.26502 10.9999 7.51933 10.8946 7.70686 10.7071L11.7069 6.7071Z" fill="#7AB2B2"/>
</svg>
